<svg width="18" height="14" viewBox="0 0 18 14" fill="none" xmlns="http://www.w3.org/2000/svg">
<path d="M11.707 0.636007L17.364 6.29301C17.5515 6.48054 17.6568 6.73484 17.6568 7.00001C17.6568 7.26517 17.5515 7.51948 17.364 7.70701L11.707 13.364C11.5184 13.5462 11.2658 13.647 11.0036 13.6447C10.7414 13.6424 10.4906 13.5372 10.3052 13.3518C10.1198 13.1664 10.0146 12.9156 10.0123 12.6534C10.01 12.3912 10.1108 12.1386 10.293 11.95L14.243 8.00001H1C0.734784 8.00001 0.48043 7.89465 0.292893 7.70711C0.105357 7.51958 0 7.26522 0 7.00001C0 6.73479 0.105357 6.48044 0.292893 6.2929C0.48043 6.10536 0.734784 6.00001 1 6.00001H14.243L10.293 2.05001C10.1975 1.95776 10.1213 1.84742 10.0689 1.72541C10.0165 1.60341 9.9889 1.47219 9.98775 1.33941C9.9866 1.20663 10.0119 1.07495 10.0622 0.952053C10.1125 0.829157 10.1867 0.717505 10.2806 0.623612C10.3745 0.52972 10.4861 0.455467 10.609 0.405186C10.7319 0.354905 10.8636 0.329603 10.9964 0.330757C11.1292 0.331911 11.2604 0.359497 11.3824 0.411906C11.5044 0.464315 11.6148 0.540497 11.707 0.636007Z" fill="#B397D9"/>
</svg>
