<svg width="18" height="14" viewBox="0 0 18 14" fill="none" xmlns="http://www.w3.org/2000/svg">
<path d="M11.9346 0.311223L17.7016 6.0782C17.8927 6.26937 18 6.52863 18 6.79894C18 7.06926 17.8927 7.32852 17.7016 7.51969L11.9346 13.2867C11.7423 13.4724 11.4848 13.5751 11.2175 13.5728C10.9502 13.5705 10.6945 13.4633 10.5055 13.2742C10.3165 13.0852 10.2093 12.8295 10.207 12.5623C10.2047 12.295 10.3074 12.0374 10.4931 11.8452L14.5199 7.81839H1.01944C0.749068 7.81839 0.489769 7.71098 0.298587 7.5198C0.107405 7.32862 0 7.06932 0 6.79894C0 6.52857 0.107405 6.26927 0.298587 6.07809C0.489769 5.88691 0.749068 5.7795 1.01944 5.7795H14.5199L10.4931 1.75271C10.3957 1.65867 10.3181 1.54618 10.2646 1.42181C10.2112 1.29743 10.1831 1.16366 10.1819 1.0283C10.1807 0.892939 10.2065 0.758699 10.2578 0.633413C10.3091 0.508128 10.3848 0.394306 10.4805 0.298588C10.5762 0.20287 10.69 0.127173 10.8153 0.0759145C10.9406 0.0246561 11.0748 -0.00113776 11.2102 3.84904e-05C11.3455 0.00121474 11.4793 0.0293373 11.6037 0.0827652C11.7281 0.136193 11.8406 0.213856 11.9346 0.311223Z" fill="#593983"/>
</svg>
