<svg width="66" height="60" viewBox="0 0 66 60" fill="none" xmlns="http://www.w3.org/2000/svg">
<path d="M66 28.05C66 12.0219 50.6352 0 33 0C15.3647 0 -8.41359e-05 12.0219 -8.41359e-05 28.05C-8.41359e-05 44.0782 15.3647 56.1001 33 56.1001C35.1549 56.1001 37.2636 55.9252 39.3063 55.5886C39.6132 55.8295 40.1412 56.2651 40.7913 56.7238C42.669 58.0471 45.3783 59.4001 49.5 59.4001C50.3752 59.4001 51.2146 59.0524 51.8334 58.4335C52.4523 57.8147 52.8 56.9753 52.8 56.1001C52.8 54.2851 52.3281 52.0279 53.1102 50.3053C60.7959 45.286 66 37.2834 66 28.05Z" fill="#241337"/>
<path d="M66 28.05C66 12.0219 50.6352 0 33 0C15.3647 0 -8.41359e-05 12.0219 -8.41359e-05 28.05C-8.41359e-05 44.0782 15.3647 56.1001 33 56.1001C35.1549 56.1001 37.2636 55.9252 39.3063 55.5886C39.6132 55.8295 40.1412 56.2651 40.7913 56.7238C42.669 58.0471 45.3783 59.4001 49.5 59.4001C50.3752 59.4001 51.2146 59.0524 51.8334 58.4335C52.4523 57.8147 52.8 56.9753 52.8 56.1001C52.8 54.2851 52.3281 52.0279 53.1102 50.3053C60.7959 45.286 66 37.2834 66 28.05Z" fill="url(#paint0_linear_39_504)" fill-opacity="0.4"/>
<defs>
<linearGradient id="paint0_linear_39_504" x1="12.643" y1="-1.05859e-06" x2="53.3569" y2="59.4001" gradientUnits="userSpaceOnUse">
<stop stop-color="#A281CD"/>
<stop offset="1" stop-color="#A281CD" stop-opacity="0.47"/>
</linearGradient>
</defs>
</svg>
