<svg width="66" height="60" viewBox="0 0 66 60" fill="none" xmlns="http://www.w3.org/2000/svg">
<path d="M0 28.05C0 12.0219 15.3648 0 33 0C50.6353 0 66.0001 12.0219 66.0001 28.05C66.0001 44.0782 50.6353 56.1001 33 56.1001C30.8451 56.1001 28.7364 55.9252 26.6937 55.5886C26.3868 55.8295 25.8588 56.2651 25.2087 56.7238C23.331 58.0471 20.6217 59.4001 16.5 59.4001C15.6248 59.4001 14.7854 59.0524 14.1666 58.4335C13.5477 57.8147 13.2 56.9753 13.2 56.1001C13.2 54.2851 13.6719 52.0279 12.8898 50.3053C5.20411 45.286 0 37.2834 0 28.05Z" fill="#241337"/>
<path d="M0 28.05C0 12.0219 15.3648 0 33 0C50.6353 0 66.0001 12.0219 66.0001 28.05C66.0001 44.0782 50.6353 56.1001 33 56.1001C30.8451 56.1001 28.7364 55.9252 26.6937 55.5886C26.3868 55.8295 25.8588 56.2651 25.2087 56.7238C23.331 58.0471 20.6217 59.4001 16.5 59.4001C15.6248 59.4001 14.7854 59.0524 14.1666 58.4335C13.5477 57.8147 13.2 56.9753 13.2 56.1001C13.2 54.2851 13.6719 52.0279 12.8898 50.3053C5.20411 45.286 0 37.2834 0 28.05Z" fill="url(#paint0_linear_39_494)" fill-opacity="0.4"/>
<defs>
<linearGradient id="paint0_linear_39_494" x1="53.357" y1="-1.05859e-06" x2="12.6431" y2="59.4001" gradientUnits="userSpaceOnUse">
<stop stop-color="#A281CD"/>
<stop offset="1" stop-color="#A281CD" stop-opacity="0.47"/>
</linearGradient>
</defs>
</svg>
