<svg width="189" height="162" viewBox="0 0 189 162" fill="none" xmlns="http://www.w3.org/2000/svg">
<path d="M67.5 81C78.2413 81 88.5426 76.733 96.1378 69.1378C103.733 61.5426 108 51.2413 108 40.5C108 29.7587 103.733 19.4574 96.1378 11.8622C88.5426 4.26695 78.2413 0 67.5 0C56.7587 0 46.4574 4.26695 38.8622 11.8622C31.267 19.4574 27 29.7587 27 40.5C27 51.2413 31.267 61.5426 38.8622 69.1378C46.4574 76.733 56.7587 81 67.5 81ZM171 54C171 61.1608 168.155 68.0284 163.092 73.0919C158.028 78.1554 151.161 81 144 81C136.839 81 129.972 78.1554 124.908 73.0919C119.845 68.0284 117 61.1608 117 54C117 46.8392 119.845 39.9716 124.908 34.9081C129.972 29.8446 136.839 27 144 27C151.161 27 158.028 29.8446 163.092 34.9081C168.155 39.9716 171 46.8392 171 54ZM67.5 90C85.437 90 101.745 95.472 113.733 103.194C119.736 107.064 124.875 111.627 128.61 116.604C132.273 121.509 135 127.404 135 133.713C135 140.508 131.85 145.953 127.224 149.886C122.859 153.576 117.171 155.97 111.294 157.617C99.477 160.92 83.844 162 67.5 162C51.156 162 35.523 160.92 23.715 157.617C17.829 155.97 12.141 153.576 7.785 149.886C3.141 145.962 0 140.508 0 133.713C0 127.395 2.727 121.509 6.39 116.613C10.125 111.627 15.264 107.055 21.267 103.203C33.255 95.463 49.563 90 67.5 90ZM144 90C155.88 90 166.662 93.924 174.6 99.459C181.998 104.616 189 112.752 189 122.139C189 127.422 186.723 131.796 183.258 134.973C180.045 137.925 175.977 139.725 172.062 140.913C164.232 143.28 154.152 144 144 144H142.173C143.343 140.868 144 137.43 144 133.713C144 124.803 140.193 117.063 135.81 111.213C131.436 105.372 125.64 100.233 119.169 95.994C126.855 92.0598 135.365 90.0056 144 90Z" fill="#A281CD" fill-opacity="0.24"/>
</svg>
