<svg width="122" height="36" viewBox="0 0 122 36" fill="none" xmlns="http://www.w3.org/2000/svg">
<path d="M51.4041 22.7912C50.4641 22.7912 49.6634 22.6229 49.0019 22.2864C48.3404 21.9382 47.8356 21.4044 47.4874 20.6849C47.1393 19.9654 46.9652 19.0428 46.9652 17.9171C46.9652 16.7566 47.1625 15.8108 47.5571 15.0797C47.9517 14.3486 48.4971 13.8089 49.1934 13.4608C49.9013 13.1126 50.7136 12.9385 51.6304 12.9385C52.2803 12.9385 52.8432 13.0024 53.319 13.13C53.8064 13.2577 54.23 13.4085 54.5897 13.5826L53.8238 15.5845C53.4176 15.422 53.0346 15.2886 52.6749 15.1841C52.3267 15.0797 51.9786 15.0274 51.6304 15.0274C51.1778 15.0274 50.8007 15.1377 50.499 15.3582C50.1972 15.5671 49.9709 15.8862 49.8201 16.3156C49.6808 16.7334 49.6112 17.2614 49.6112 17.8997C49.6112 18.5264 49.6866 19.0486 49.8375 19.4664C49.9999 19.8725 50.232 20.1801 50.5338 20.389C50.8355 20.5862 51.2011 20.6849 51.6304 20.6849C52.1759 20.6849 52.6575 20.6153 53.0753 20.476C53.493 20.3251 53.8992 20.122 54.2938 19.8667V22.0775C53.8992 22.3328 53.4814 22.5127 53.0405 22.6171C52.6111 22.7332 52.0656 22.7912 51.4041 22.7912ZM65.1156 17.8475C65.1156 18.6366 65.0053 19.3387 64.7848 19.9538C64.5759 20.5688 64.2684 21.0911 63.8622 21.5205C63.4677 21.9382 62.986 22.2574 62.4174 22.4779C61.8488 22.6868 61.2047 22.7912 60.4852 22.7912C59.8237 22.7912 59.2086 22.6868 58.64 22.4779C58.0829 22.2574 57.6013 21.9382 57.1951 21.5205C56.789 21.0911 56.4698 20.5688 56.2377 19.9538C56.0172 19.3387 55.907 18.6366 55.907 17.8475C55.907 16.7914 56.0927 15.9036 56.464 15.1841C56.8354 14.453 57.3692 13.896 58.0655 13.513C58.7618 13.13 59.5858 12.9385 60.5374 12.9385C61.431 12.9385 62.2201 13.13 62.9048 13.513C63.5895 13.896 64.1291 14.453 64.5237 15.1841C64.9183 15.9036 65.1156 16.7914 65.1156 17.8475ZM58.5529 17.8475C58.5529 18.4741 58.6168 19.0022 58.7444 19.4315C58.8837 19.8493 59.0984 20.1685 59.3885 20.389C59.6786 20.5979 60.0558 20.7023 60.52 20.7023C60.9842 20.7023 61.3555 20.5979 61.6341 20.389C61.9242 20.1685 62.1331 19.8493 62.2607 19.4315C62.4 19.0022 62.4696 18.4741 62.4696 17.8475C62.4696 17.2208 62.4 16.6986 62.2607 16.2808C62.1331 15.863 61.9242 15.5497 61.6341 15.3408C61.3439 15.1319 60.9668 15.0274 60.5026 15.0274C59.8179 15.0274 59.3189 15.2653 59.0055 15.7412C58.7038 16.2054 58.5529 16.9075 58.5529 17.8475ZM75.6844 15.6019C75.6844 16.1125 75.5219 16.5477 75.197 16.9075C74.8836 17.2672 74.4136 17.4993 73.787 17.6038V17.6734C74.4484 17.7546 74.9765 17.9809 75.371 18.3523C75.7772 18.7236 75.9803 19.1994 75.9803 19.7797C75.9803 20.1859 75.8991 20.563 75.7366 20.9112C75.5857 21.2593 75.342 21.5611 75.0055 21.8164C74.6689 22.0717 74.2338 22.269 73.6999 22.4082C73.1777 22.5475 72.5394 22.6171 71.7851 22.6171H67.2591V13.1126H71.7851C72.5278 13.1126 73.1893 13.1939 73.7696 13.3563C74.3614 13.5072 74.8256 13.7625 75.1622 14.1223C75.5103 14.482 75.6844 14.9752 75.6844 15.6019ZM73.2995 19.6404C73.2995 19.2691 73.1545 19.0022 72.8644 18.8397C72.5742 18.6656 72.139 18.5786 71.5588 18.5786H69.8529V20.8242H71.611C72.0984 20.8242 72.4988 20.7371 72.8121 20.563C73.1371 20.3774 73.2995 20.0698 73.2995 19.6404ZM73.0558 15.8108C73.0558 15.5091 72.9398 15.2886 72.7077 15.1493C72.4756 15.01 72.1332 14.9404 71.6806 14.9404H69.8529V16.8204H71.3847C71.9302 16.8204 72.3421 16.745 72.6207 16.5941C72.9108 16.4317 73.0558 16.1705 73.0558 15.8108ZM82.1235 12.9385C83.0055 12.9385 83.7598 13.1068 84.3865 13.4434C85.0248 13.7799 85.518 14.2673 85.8662 14.9056C86.2143 15.5439 86.3884 16.3272 86.3884 17.2556V18.5089H80.2609C80.2841 19.2401 80.4988 19.8145 80.905 20.2323C81.3228 20.6501 81.8972 20.859 82.6284 20.859C83.2434 20.859 83.8005 20.8009 84.2995 20.6849C84.7985 20.5572 85.3149 20.3658 85.8487 20.1104V22.1123C85.3845 22.3444 84.8913 22.5127 84.3691 22.6171C83.8585 22.7332 83.2376 22.7912 82.5065 22.7912C81.5549 22.7912 80.7135 22.6171 79.9824 22.269C79.2513 21.9092 78.6768 21.3696 78.2591 20.6501C77.8413 19.9306 77.6324 19.0254 77.6324 17.9345C77.6324 16.8204 77.8181 15.8978 78.1894 15.1667C78.5724 14.424 79.1004 13.8669 79.7735 13.4956C80.4466 13.1242 81.2299 12.9385 82.1235 12.9385ZM82.1409 14.7837C81.6419 14.7837 81.2241 14.9462 80.8876 15.2711C80.5627 15.5961 80.3712 16.1009 80.3132 16.7856H83.9513C83.9513 16.4026 83.8817 16.0603 83.7424 15.7586C83.6148 15.4568 83.4175 15.2189 83.1506 15.0449C82.8837 14.8708 82.5471 14.7837 82.1409 14.7837ZM96.3598 15.0623H93.2438V22.6171H90.6501V15.0623H87.5341V13.1126H96.3598V15.0623ZM96.7555 13.1126H99.5929L101.386 18.4567C101.444 18.6308 101.49 18.8049 101.525 18.979C101.572 19.153 101.606 19.3329 101.63 19.5186C101.664 19.7043 101.688 19.9016 101.699 20.1104H101.751C101.786 19.8087 101.833 19.5244 101.891 19.2575C101.96 18.979 102.036 18.712 102.117 18.4567L103.875 13.1126H106.66L102.639 23.8357C102.396 24.4855 102.076 25.031 101.682 25.472C101.299 25.913 100.852 26.2437 100.341 26.4642C99.8308 26.6847 99.2738 26.7949 98.6703 26.7949C98.3802 26.7949 98.1249 26.7775 97.9044 26.7427C97.6955 26.7195 97.5098 26.6905 97.3474 26.6557V24.6016C97.475 24.6248 97.6259 24.648 97.8 24.6712C97.9856 24.6944 98.1771 24.706 98.3744 24.706C98.7342 24.706 99.0417 24.6306 99.297 24.4797C99.5639 24.3289 99.7844 24.12 99.9585 23.8531C100.133 23.5978 100.272 23.3192 100.376 23.0175L100.533 22.5475L96.7555 13.1126ZM120 13.1126V22.6171H117.581V17.9519C117.581 17.4877 117.587 17.0351 117.598 16.5941C117.621 16.1531 117.65 15.747 117.685 15.3756H117.633L115.004 22.6171H113.055L110.391 15.3582H110.322C110.368 15.7412 110.397 16.1531 110.409 16.5941C110.432 17.0235 110.444 17.4993 110.444 18.0215V22.6171H108.024V13.1126H111.697L114.064 19.5534L116.467 13.1126H120Z" fill="white"/>
<path fill-rule="evenodd" clip-rule="evenodd" d="M-0.00012207 10.0278C-0.00012207 8.79193 0.490812 7.60671 1.36468 6.73285C2.23855 5.85898 3.42377 5.36804 4.65961 5.36804H26.405C27.6408 5.36804 28.8261 5.85898 29.6999 6.73285C30.5738 7.60671 31.0647 8.79193 31.0647 10.0278V25.5602C31.0647 26.796 30.5738 27.9813 29.6999 28.8551C28.8261 29.729 27.6408 30.2199 26.405 30.2199H14.4963L9.31934 34.103C8.03946 35.0629 6.21285 34.1496 6.21285 32.5498V30.2199H4.65961C3.42377 30.2199 2.23855 29.729 1.36468 28.8551C0.490812 27.9813 -0.00012207 26.796 -0.00012207 25.5602V10.0278Z" fill="#593983"/>
<path d="M6.21277 5.36877C6.21277 4.13294 6.7037 2.94772 7.57757 2.07385C8.45144 1.19998 9.63666 0.709045 10.8725 0.709045H32.6179C33.8537 0.709045 35.039 1.19998 35.9128 2.07385C36.7867 2.94772 37.2776 4.13294 37.2776 5.36877V20.9012C37.2776 22.137 36.7867 23.3223 35.9128 24.1961C35.039 25.07 33.8537 25.5609 32.6179 25.5609H20.7092H12.4257H10.8725C9.63666 25.5609 8.45144 25.07 7.57757 24.1961C6.7037 23.3223 6.21277 22.137 6.21277 20.9012V5.36877Z" fill="#422A61"/>
<path d="M26.4052 5.36804C27.6409 5.36809 28.8262 5.85945 29.7001 6.73328C30.5739 7.60713 31.0643 8.79242 31.0643 10.0282V25.5614H10.8719C9.63629 25.5613 8.45078 25.0699 7.57703 24.1962C6.70341 23.3223 6.21277 22.1369 6.21277 20.9012V5.36804H26.4052Z" fill="url(#paint0_radial_33_327)"/>
<defs>
<radialGradient id="paint0_radial_33_327" cx="0" cy="0" r="1" gradientUnits="userSpaceOnUse" gradientTransform="translate(9.58913 22.5293) rotate(-32.4154) scale(27.8204 34.2416)">
<stop offset="0.0306646" stop-color="#A373E2"/>
<stop offset="0.706485" stop-color="#774CAE"/>
</radialGradient>
</defs>
</svg>
