<svg width="101" height="92" viewBox="0 0 101 92" fill="none" xmlns="http://www.w3.org/2000/svg">
<path fill-rule="evenodd" clip-rule="evenodd" d="M0 25.2494C0 21.9011 1.33013 18.6899 3.69777 16.3222C6.06542 13.9546 9.27663 12.6244 12.625 12.6244H71.5416C74.8899 12.6244 78.1011 13.9546 80.4688 16.3222C82.8364 18.6899 84.1666 21.9011 84.1666 25.2494V67.3327C84.1666 70.6811 82.8364 73.8923 80.4688 76.2599C78.1011 78.6276 74.8899 79.9577 71.5416 79.9577H39.2763L25.25 90.4785C21.7823 93.0792 16.8333 90.6048 16.8333 86.2702V79.9577H12.625C9.27663 79.9577 6.06542 78.6276 3.69777 76.2599C1.33013 73.8923 0 70.6811 0 67.3327V25.2494Z" fill="#593983"/>
<path d="M16.8334 12.625C16.8334 9.27663 18.1635 6.06542 20.5312 3.69777C22.8988 1.33013 26.11 0 29.4584 0H88.375C91.7233 0 94.9346 1.33013 97.3022 3.69777C99.6698 6.06542 101 9.27663 101 12.625V54.7083C101 58.0566 99.6698 61.2678 97.3022 63.6355C94.9346 66.0031 91.7233 67.3332 88.375 67.3332H56.1097H33.6667H29.4584C26.11 67.3332 22.8988 66.0031 20.5312 63.6355C18.1635 61.2678 16.8334 58.0566 16.8334 54.7083V12.625Z" fill="#422A61"/>
<path d="M71.5416 12.6244C74.8899 12.6244 78.1013 13.954 80.469 16.3216C82.8365 18.6892 84.167 21.9006 84.1671 25.2489V67.3337H29.4588C26.1106 67.3337 22.8992 66.003 20.5315 63.6355C18.1639 61.2679 16.8334 58.0566 16.8334 54.7082V12.6244H71.5416Z" fill="url(#paint0_radial_163_2975)"/>
<defs>
<radialGradient id="paint0_radial_163_2975" cx="0" cy="0" r="1" gradientUnits="userSpaceOnUse" gradientTransform="translate(25.9815 59.1188) rotate(-32.4138) scale(75.3762 92.7714)">
<stop offset="0.0306646" stop-color="#A373E2"/>
<stop offset="0.706485" stop-color="#774CAE"/>
</radialGradient>
</defs>
</svg>
