<svg width="153" height="170" viewBox="0 0 153 170" fill="none" xmlns="http://www.w3.org/2000/svg">
<path d="M76.4999 93.4998C96.8658 93.4998 115.387 99.3988 129.013 107.712C135.813 111.86 141.627 116.756 145.826 122.077C149.957 127.304 153 133.56 153 140.25C153 147.432 149.506 153.093 144.474 157.131C139.714 160.956 133.433 163.489 126.76 165.257C113.347 168.801 95.4463 170 76.4999 170C57.5534 170 39.6524 168.81 26.2394 165.257C19.567 163.489 13.2855 160.956 8.52548 157.131C3.48499 153.085 0 147.432 0 140.25C0 133.56 3.04299 127.304 7.17399 122.068C11.373 116.756 17.1785 111.868 23.987 107.703C37.6124 99.4073 56.1424 93.4998 76.4999 93.4998ZM76.4999 0C87.7715 0 98.5815 4.47766 106.552 12.4479C114.522 20.4182 119 31.2282 119 42.4999C119 53.7716 114.522 64.5816 106.552 72.5519C98.5815 80.5222 87.7715 84.9998 76.4999 84.9998C65.2282 84.9998 54.4182 80.5222 46.4479 72.5519C38.4776 64.5816 33.9999 53.7716 33.9999 42.4999C33.9999 31.2282 38.4776 20.4182 46.4479 12.4479C54.4182 4.47766 65.2282 0 76.4999 0Z" fill="#A281CD" fill-opacity="0.24"/>
</svg>
