<svg width="10" height="11" viewBox="0 0 10 11" fill="none" xmlns="http://www.w3.org/2000/svg">
<path fill-rule="evenodd" clip-rule="evenodd" d="M1.45688 10.3862C1.39525 10.5244 1.28235 10.6332 1.14201 10.6897C1.00167 10.7462 0.844867 10.746 0.704694 10.6891C0.564522 10.6321 0.451944 10.523 0.390721 10.3846C0.329497 10.2463 0.324417 10.0896 0.376551 9.94756L4.05797 0.884311C4.13407 0.696849 4.26437 0.536353 4.43219 0.423356C4.60001 0.310359 4.79773 0.25 5.00005 0.25C5.20237 0.25 5.40009 0.310359 5.56791 0.423356C5.73574 0.536353 5.86603 0.696849 5.94213 0.884311L9.62414 9.94756C9.65428 10.0188 9.66996 10.0953 9.67027 10.1726C9.67058 10.25 9.65551 10.3266 9.62593 10.398C9.59636 10.4695 9.55287 10.5344 9.49799 10.5888C9.44312 10.6433 9.37796 10.6864 9.3063 10.7155C9.23464 10.7445 9.15792 10.7591 9.08058 10.7582C9.00325 10.7574 8.92686 10.7412 8.85585 10.7106C8.78485 10.6799 8.72064 10.6355 8.66697 10.5798C8.61329 10.5241 8.57123 10.4583 8.54322 10.3862L7.26864 7.25023H2.73147L1.45688 10.3862ZM3.20514 6.08356H6.79497L5.00005 1.66539L3.20514 6.08356Z" fill="#D9D9E2"/>
</svg>
