<svg width="18" height="18" viewBox="0 0 18 18" fill="none" xmlns="http://www.w3.org/2000/svg">
<path d="M6.58916 3.54033C7.0875 2.08199 9.1025 2.03783 9.69333 3.40783L9.74333 3.54116L10.4158 5.50783C10.5699 5.95885 10.819 6.37158 11.1462 6.71818C11.4734 7.06477 11.8711 7.33717 12.3125 7.51699L12.4933 7.58449L14.46 8.25616C15.9183 8.75449 15.9625 10.7695 14.5933 11.3603L14.46 11.4103L12.4933 12.0828C12.0421 12.2368 11.6293 12.4858 11.2825 12.813C10.9358 13.1402 10.6632 13.538 10.4833 13.9795L10.4158 14.1595L9.74416 16.127C9.24583 17.5853 7.23083 17.6295 6.64083 16.2603L6.58916 16.127L5.9175 14.1603C5.76348 13.7091 5.51447 13.2963 5.18728 12.9495C4.86009 12.6028 4.46232 12.3302 4.02083 12.1503L3.84083 12.0828L1.87416 11.4112C0.414995 10.9128 0.370829 8.89783 1.74083 8.30783L1.87416 8.25616L3.84083 7.58449C4.29186 7.43037 4.70459 7.18132 5.05118 6.85413C5.39778 6.52695 5.67017 6.12923 5.85 5.68783L5.9175 5.50783L6.58916 3.54033ZM14.8333 0.666992C14.9892 0.666992 15.142 0.710724 15.2743 0.793218C15.4066 0.875713 15.5131 0.993661 15.5817 1.13366L15.6217 1.23116L15.9133 2.08616L16.7692 2.37783C16.9254 2.43091 17.0624 2.52917 17.1627 2.66017C17.263 2.79117 17.3222 2.94901 17.3327 3.11368C17.3433 3.27835 17.3047 3.44243 17.2218 3.58515C17.139 3.72786 17.0157 3.84278 16.8675 3.91533L16.7692 3.95533L15.9142 4.24699L15.6225 5.10283C15.5693 5.25902 15.471 5.39591 15.3399 5.49615C15.2089 5.5964 15.051 5.65549 14.8864 5.66593C14.7217 5.67637 14.5576 5.6377 14.415 5.55481C14.2723 5.47192 14.1575 5.34855 14.085 5.20033L14.045 5.10283L13.7533 4.24783L12.8975 3.95616C12.7413 3.90308 12.6043 3.80481 12.504 3.67381C12.4036 3.54281 12.3445 3.38498 12.3339 3.22031C12.3234 3.05564 12.362 2.89155 12.4448 2.74884C12.5276 2.60612 12.651 2.49121 12.7992 2.41866L12.8975 2.37866L13.7525 2.08699L14.0442 1.23116C14.1004 1.06651 14.2067 0.923583 14.3482 0.822408C14.4897 0.721233 14.6594 0.666888 14.8333 0.666992Z" fill="#593983"/>
</svg>
