<svg width="16" height="17" viewBox="0 0 16 17" fill="none" xmlns="http://www.w3.org/2000/svg">
<path d="M7.99977 1.33345C8.98468 1.33345 9.95996 1.52744 10.8699 1.90435C11.7798 2.28126 12.6066 2.83371 13.3031 3.53015C13.9995 4.22659 14.552 5.05338 14.9289 5.96332C15.3058 6.87326 15.4998 7.84853 15.4998 8.83345C15.4998 9.81836 15.3058 10.7936 14.9289 11.7036C14.552 12.6135 13.9995 13.4403 13.3031 14.1367C12.6066 14.8332 11.7798 15.3856 10.8699 15.7625C9.95996 16.1395 8.98468 16.3334 7.99977 16.3334C6.01065 16.3334 4.10299 15.5433 2.69647 14.1367C1.28995 12.7302 0.499772 10.8226 0.499772 8.83345C0.499772 6.84433 1.28995 4.93667 2.69647 3.53015C4.10299 2.12362 6.01065 1.33345 7.99977 1.33345ZM7.99977 4.66678C7.79566 4.66681 7.59866 4.74174 7.44613 4.87738C7.2936 5.01301 7.19615 5.19991 7.17227 5.40262L7.16644 5.50011V8.82178C7.16368 9.00714 7.22292 9.18811 7.33477 9.33595L7.40977 9.42262L9.16477 11.1768C9.31439 11.3278 9.51608 11.416 9.72856 11.4232C9.94104 11.4304 10.1482 11.3561 10.3078 11.2156C10.4673 11.075 10.567 10.8788 10.5866 10.6671C10.6062 10.4554 10.5441 10.2442 10.4131 10.0768L10.3431 9.99845L8.83311 8.48845V5.50011C8.83311 5.2791 8.74531 5.06714 8.58903 4.91086C8.43275 4.75458 8.22079 4.66678 7.99977 4.66678ZM12.9998 0.171782C14.0397 0.773614 14.9632 1.55714 15.7264 2.48512C15.8595 2.65648 15.9205 2.87298 15.8964 3.0886C15.8723 3.30421 15.7651 3.50195 15.5976 3.63977C15.43 3.77759 15.2153 3.84463 14.9991 3.82665C14.7829 3.80866 14.5822 3.70706 14.4398 3.54345C13.8032 2.76956 13.0329 2.11615 12.1656 1.61428C12.0709 1.55945 11.9879 1.48651 11.9214 1.39961C11.8548 1.31271 11.8061 1.21356 11.7779 1.10782C11.7497 1.00207 11.7426 0.89181 11.757 0.783322C11.7714 0.674835 11.807 0.570248 11.8619 0.475532C11.9167 0.380816 11.9896 0.297826 12.0765 0.231302C12.1634 0.164777 12.2626 0.11602 12.3683 0.0878139C12.4741 0.0596081 12.5843 0.0525061 12.6928 0.0669133C12.8013 0.0813205 12.9051 0.116955 12.9998 0.171782ZM4.1381 0.475948C4.24861 0.667347 4.27855 0.894803 4.22135 1.10828C4.16416 1.32176 4.0245 1.50377 3.8331 1.61428C2.9657 2.1164 2.19544 2.77009 1.55894 3.54428C1.49061 3.63228 1.40534 3.70568 1.30816 3.76015C1.21097 3.81462 1.10385 3.84905 0.993133 3.86141C0.882412 3.87376 0.770339 3.86379 0.663539 3.83208C0.556739 3.80038 0.457381 3.74758 0.37134 3.6768C0.285299 3.60603 0.214323 3.51873 0.162608 3.42005C0.110892 3.32137 0.0794879 3.21333 0.0702516 3.1023C0.0610154 2.99128 0.0741349 2.87953 0.108834 2.77366C0.143533 2.6678 0.199108 2.56996 0.272271 2.48595C1.03516 1.55774 1.9584 0.773929 2.9981 0.171782C3.09286 0.116902 3.19751 0.0812359 3.30606 0.0668217C3.4146 0.0524075 3.52493 0.059528 3.63073 0.0877763C3.73652 0.116025 3.83571 0.164847 3.92263 0.231452C4.00955 0.298057 4.08248 0.381139 4.13727 0.475948H4.1381Z" fill="#D9D9E2"/>
</svg>
