<svg width="68" height="60" viewBox="0 0 68 60" fill="none" xmlns="http://www.w3.org/2000/svg">
<path d="M38.3296 2.49316L67.1096 52.3398C67.5484 53.0999 67.7795 53.9621 67.7795 54.8398C67.7795 55.7175 67.5485 56.5797 67.1096 57.3398C66.6708 58.0999 66.0396 58.7311 65.2796 59.1699C64.5195 59.6088 63.6573 59.8398 62.7796 59.8398H5.2196C4.34193 59.8398 3.47972 59.6088 2.71964 59.1699C1.95957 58.7311 1.32839 58.0999 0.889568 57.3398C0.450741 56.5797 0.219721 55.7175 0.219727 54.8398C0.219732 53.9621 0.450763 53.0999 0.889599 52.3398L29.6696 2.49316C31.5929 -0.840169 36.4029 -0.840169 38.3296 2.49316ZM33.9996 41.9998C33.1155 41.9998 32.2677 42.351 31.6426 42.9761C31.0175 43.6013 30.6663 44.4491 30.6663 45.3332C30.6663 46.2172 31.0175 47.0651 31.6426 47.6902C32.2677 48.3153 33.1155 48.6665 33.9996 48.6665C34.8837 48.6665 35.7315 48.3153 36.3566 47.6902C36.9817 47.0651 37.3329 46.2172 37.3329 45.3332C37.3329 44.4491 36.9817 43.6013 36.3566 42.9761C35.7315 42.351 34.8837 41.9998 33.9996 41.9998ZM33.9996 18.6665C33.1832 18.6666 32.3951 18.9664 31.785 19.5089C31.1749 20.0514 30.7851 20.799 30.6896 21.6098L30.6663 21.9998V35.3332C30.6672 36.1828 30.9925 36.9999 31.5758 37.6177C32.159 38.2355 32.9561 38.6073 33.8042 38.6571C34.6524 38.7069 35.4875 38.4309 36.139 37.8856C36.7906 37.3403 37.2093 36.5668 37.3096 35.7232L37.3329 35.3332V21.9998C37.3329 21.1158 36.9817 20.2679 36.3566 19.6428C35.7315 19.0177 34.8837 18.6665 33.9996 18.6665Z" fill="#F43F5E"/>
</svg>
