<svg width="8" height="12" viewBox="0 0 8 12" fill="none" xmlns="http://www.w3.org/2000/svg">
<path fill-rule="evenodd" clip-rule="evenodd" d="M7.08917 5.41071C7.24539 5.56698 7.33316 5.77891 7.33316 5.99988C7.33316 6.22085 7.24539 6.43277 7.08917 6.58904L2.375 11.3032C2.29813 11.3828 2.20617 11.4463 2.1045 11.49C2.00283 11.5336 1.89348 11.5566 1.78284 11.5576C1.67219 11.5585 1.56245 11.5375 1.46004 11.4956C1.35763 11.4537 1.26458 11.3918 1.18634 11.3135C1.10809 11.2353 1.04622 11.1423 1.00432 11.0398C0.962415 10.9374 0.941331 10.8277 0.942292 10.717C0.943254 10.6064 0.966242 10.497 1.00992 10.3954C1.05359 10.2937 1.11708 10.2017 1.19667 10.1249L5.32167 5.99988L1.19667 1.87488C1.04487 1.71771 0.960874 1.50721 0.962772 1.28871C0.964671 1.07021 1.05231 0.861201 1.20682 0.706695C1.36133 0.552188 1.57034 0.464546 1.78883 0.462647C2.00733 0.460749 2.21783 0.544745 2.375 0.696543L7.08917 5.41071Z" fill="#593983"/>
</svg>
