<svg width="18" height="14" viewBox="0 0 18 14" fill="none" xmlns="http://www.w3.org/2000/svg">
<path d="M11.707 0.636343L17.364 6.29334C17.5515 6.48087 17.6568 6.73518 17.6568 7.00034C17.6568 7.26551 17.5515 7.51981 17.364 7.70734L11.707 13.3643C11.5184 13.5465 11.2658 13.6473 11.0036 13.645C10.7414 13.6427 10.4906 13.5376 10.3052 13.3522C10.1198 13.1668 10.0146 12.9159 10.0123 12.6537C10.01 12.3915 10.1108 12.1389 10.293 11.9503L14.243 8.00034H1C0.734784 8.00034 0.48043 7.89499 0.292893 7.70745C0.105357 7.51991 0 7.26556 0 7.00034C0 6.73513 0.105357 6.48077 0.292893 6.29324C0.48043 6.1057 0.734784 6.00034 1 6.00034H14.243L10.293 2.05034C10.1975 1.9581 10.1213 1.84775 10.0689 1.72575C10.0165 1.60374 9.9889 1.47252 9.98775 1.33974C9.9866 1.20696 10.0119 1.07529 10.0622 0.952389C10.1125 0.829492 10.1867 0.717841 10.2806 0.623948C10.3745 0.530055 10.4861 0.455802 10.609 0.405521C10.7319 0.355241 10.8636 0.329939 10.9964 0.331092C11.1292 0.332246 11.2604 0.359833 11.3824 0.412242C11.5044 0.464651 11.6148 0.540833 11.707 0.636343Z" fill="#B397D9"/>
</svg>
