<svg width="18" height="21" viewBox="0 0 18 21" fill="none" xmlns="http://www.w3.org/2000/svg">
<path fill-rule="evenodd" clip-rule="evenodd" d="M3.97211 2.77717C4.0779 2.69584 4.16634 2.59416 4.23222 2.47813C4.2981 2.3621 4.3401 2.23405 4.35573 2.10153C4.37136 1.96902 4.36032 1.83471 4.32325 1.70653C4.28617 1.57835 4.22382 1.45889 4.13986 1.35518C4.05591 1.25147 3.95204 1.16561 3.83439 1.10265C3.71674 1.0397 3.58768 1.00094 3.45481 0.988634C3.32195 0.976332 3.18796 0.990745 3.06075 1.03102C2.93354 1.0713 2.81568 1.13663 2.71411 1.22317C1.63571 2.09532 0.74975 3.1815 0.11211 4.41317C0.0489842 4.53003 0.00976962 4.65829 -0.00324449 4.79046C-0.0162586 4.92264 -0.00281139 5.05609 0.0363118 5.18301C0.075435 5.30994 0.13945 5.4278 0.224621 5.52971C0.309792 5.63162 0.414411 5.71555 0.532371 5.77659C0.650331 5.83763 0.779269 5.87456 0.911658 5.88522C1.04405 5.89588 1.17723 5.88007 1.30344 5.8387C1.42965 5.79732 1.54635 5.73122 1.64674 5.64426C1.74712 5.55729 1.82918 5.45119 1.88811 5.33217C2.39876 4.34565 3.10836 3.47568 3.97211 2.77717ZM15.2861 1.22317C15.1845 1.13663 15.0667 1.0713 14.9395 1.03102C14.8123 0.990745 14.6783 0.976332 14.5454 0.988634C14.4125 1.00094 14.2835 1.0397 14.1658 1.10265C14.0482 1.16561 13.9443 1.25147 13.8604 1.35518C13.7764 1.45889 13.714 1.57835 13.677 1.70653C13.6399 1.83471 13.6289 1.96902 13.6445 2.10153C13.6601 2.23405 13.7021 2.3621 13.768 2.47813C13.8339 2.59416 13.9223 2.69584 14.0281 2.77717C14.8954 3.47885 15.6072 4.3534 16.1181 5.34517C16.1783 5.46191 16.2608 5.56567 16.3611 5.65051C16.4613 5.73535 16.5773 5.79962 16.7023 5.83964C16.8274 5.87966 16.9592 5.89466 17.09 5.88377C17.2209 5.87288 17.3484 5.83631 17.4651 5.77617C17.5819 5.71602 17.6856 5.63347 17.7705 5.53323C17.8553 5.43298 17.9196 5.31701 17.9596 5.19193C17.9996 5.06685 18.0146 4.93511 18.0037 4.80424C17.9928 4.67336 17.9563 4.54591 17.8961 4.42917C17.2579 3.19102 16.3691 2.09921 15.2861 1.22317ZM2.00011 9.00017C2.00011 7.14365 2.73761 5.36317 4.05036 4.05042C5.36312 2.73767 7.14359 2.00017 9.00011 2.00017C10.8566 2.00017 12.6371 2.73767 13.9499 4.05042C15.2626 5.36317 16.0001 7.14365 16.0001 9.00017V12.7642L17.8221 16.4082C17.906 16.5759 17.9456 16.7623 17.9372 16.9496C17.9287 17.1369 17.8726 17.319 17.774 17.4785C17.6754 17.638 17.5376 17.7697 17.3738 17.861C17.21 17.9523 17.0256 18.0002 16.8381 18.0002H1.16211C0.974588 18.0002 0.790171 17.9523 0.626377 17.861C0.462582 17.7697 0.324848 17.638 0.226255 17.4785C0.127662 17.319 0.0714847 17.1369 0.0630583 16.9496C0.0546319 16.7623 0.0942362 16.5759 0.17811 16.4082L2.00011 12.7642V9.00017ZM6.00011 19.0002H12.0001C12.0001 19.5306 11.7894 20.0393 11.4143 20.4144C11.0393 20.7895 10.5305 21.0002 10.0001 21.0002H8.00011C7.46968 21.0002 6.96097 20.7895 6.5859 20.4144C6.21082 20.0393 6.00011 19.5306 6.00011 19.0002Z" fill="#593983"/>
</svg>
