<svg width="20" height="21" viewBox="0 0 20 21" fill="none" xmlns="http://www.w3.org/2000/svg">
<path d="M8.0769 1.61415C8.4149 0.854147 9.4559 0.817147 9.8639 1.50015L9.9229 1.61415L10.9649 3.95915C11.8748 6.00606 13.3879 7.72641 15.3019 8.89015L15.6239 9.07915L17.4739 10.1191C17.621 10.2015 17.7451 10.3193 17.835 10.4619C17.9248 10.6045 17.9776 10.7673 17.9884 10.9355C17.9993 11.1037 17.9678 11.2719 17.897 11.4249C17.8262 11.5778 17.7182 11.7106 17.5829 11.8111L17.4749 11.8811L15.6239 12.9211C13.6713 14.0195 12.1006 15.6879 11.1219 17.7031L10.9649 18.0411L9.9229 20.3861C9.5849 21.1461 8.5439 21.1831 8.1359 20.5001L8.0769 20.3861L7.0349 18.0411C6.12503 15.9942 4.61192 14.2739 2.6979 13.1101L2.3759 12.9211L0.525902 11.8811C0.37883 11.7988 0.254703 11.681 0.164831 11.5384C0.0749599 11.3958 0.0222025 11.233 0.0113668 11.0648C0.000531188 10.8966 0.0319619 10.7283 0.102795 10.5754C0.173628 10.4225 0.28161 10.2897 0.416902 10.1891L0.524902 10.1191L2.3759 9.07915C4.32852 7.98079 5.89922 6.31241 6.8779 4.29715L7.0349 3.95915L8.0769 1.61415ZM17.2209 1.12115C17.7173 2.24875 18.5638 3.18641 19.6349 3.79515C19.7949 3.88515 19.7949 4.11515 19.6349 4.20515C18.5632 4.81398 17.7164 5.75203 17.2199 6.88015C17.2009 6.92262 17.17 6.95868 17.131 6.98398C17.092 7.00929 17.0464 7.02275 16.9999 7.02275C16.9534 7.02275 16.9079 7.00929 16.8688 6.98398C16.8298 6.95868 16.7989 6.92262 16.7799 6.88015C16.2833 5.7524 15.4364 4.81472 14.3649 4.20615C14.3287 4.18552 14.2987 4.15569 14.2778 4.11968C14.2568 4.08368 14.2458 4.04278 14.2458 4.00115C14.2458 3.95951 14.2568 3.91861 14.2778 3.88261C14.2987 3.84661 14.3287 3.81678 14.3649 3.79615C15.4367 3.18706 16.2836 2.24864 16.7799 1.12015C16.7989 1.07768 16.8298 1.04161 16.8688 1.01631C16.9079 0.991004 16.9534 0.977539 16.9999 0.977539C17.0464 0.977539 17.092 0.991004 17.131 1.01631C17.17 1.04161 17.2009 1.07768 17.2199 1.12015L17.2209 1.12115Z" fill="#593983"/>
</svg>
