<svg width="16" height="14" viewBox="0 0 16 14" fill="none" xmlns="http://www.w3.org/2000/svg">
<path d="M9.5 0.25C10.0967 0.25 10.669 0.487053 11.091 0.90901C11.5129 1.33097 11.75 1.90326 11.75 2.5H14C14.3978 2.5 14.7794 2.65804 15.0607 2.93934C15.342 3.22064 15.5 3.60218 15.5 4V12.25C15.5 12.6478 15.342 13.0294 15.0607 13.3107C14.7794 13.592 14.3978 13.75 14 13.75H2C1.60218 13.75 1.22064 13.592 0.93934 13.3107C0.658035 13.0294 0.5 12.6478 0.5 12.25V4C0.5 3.60218 0.658035 3.22064 0.93934 2.93934C1.22064 2.65804 1.60218 2.5 2 2.5H4.25C4.25 1.90326 4.48705 1.33097 4.90901 0.90901C5.33097 0.487053 5.90326 0.25 6.5 0.25H9.5ZM13.25 5.5H2.75C2.55884 5.50021 2.37498 5.57341 2.23597 5.70464C2.09697 5.83586 2.01332 6.01521 2.00212 6.20605C1.99092 6.39688 2.05301 6.58478 2.1757 6.73137C2.29839 6.87796 2.47243 6.97217 2.66225 6.99475L2.75 7H7.25V7.75C7.25021 7.94116 7.32341 8.12502 7.45464 8.26403C7.58586 8.40303 7.76521 8.48668 7.95605 8.49788C8.14688 8.50908 8.33478 8.44699 8.48137 8.3243C8.62796 8.20161 8.72217 8.02757 8.74475 7.83775L8.75 7.75V7H13.25C13.4412 6.99979 13.625 6.92659 13.764 6.79536C13.903 6.66414 13.9867 6.48479 13.9979 6.29395C14.0091 6.10312 13.947 5.91522 13.8243 5.76863C13.7016 5.62204 13.5276 5.52783 13.3378 5.50525L13.25 5.5ZM9.5 1.75H6.5C6.3163 1.75002 6.139 1.81747 6.00172 1.93954C5.86444 2.06161 5.77674 2.22981 5.75525 2.41225L5.75 2.5H10.25C10.25 2.3163 10.1825 2.139 10.0605 2.00172C9.93839 1.86444 9.77019 1.77674 9.58775 1.75525L9.5 1.75Z" fill="white"/>
</svg>
