<svg width="16" height="16" viewBox="0 0 16 16" fill="none" xmlns="http://www.w3.org/2000/svg">
<path d="M15.5 8V13.8333C15.5 14.2754 15.3244 14.6993 15.0118 15.0118C14.6993 15.3244 14.2754 15.5 13.8333 15.5H2.16667C1.72464 15.5 1.30072 15.3244 0.988155 15.0118C0.675595 14.6993 0.5 14.2754 0.5 13.8333V8H15.5ZM11.3333 0.5C11.5543 0.5 11.7663 0.587797 11.9226 0.744078C12.0789 0.900358 12.1667 1.11232 12.1667 1.33333V2.16667H13.8333C14.2754 2.16667 14.6993 2.34226 15.0118 2.65482C15.3244 2.96738 15.5 3.39131 15.5 3.83333V6.33333H0.5V3.83333C0.5 3.39131 0.675595 2.96738 0.988155 2.65482C1.30072 2.34226 1.72464 2.16667 2.16667 2.16667H3.83333V1.33333C3.83333 1.11232 3.92113 0.900358 4.07741 0.744078C4.23369 0.587797 4.44565 0.5 4.66667 0.5C4.88768 0.5 5.09964 0.587797 5.25592 0.744078C5.4122 0.900358 5.5 1.11232 5.5 1.33333V2.16667H10.5V1.33333C10.5 1.11232 10.5878 0.900358 10.7441 0.744078C10.9004 0.587797 11.1123 0.5 11.3333 0.5Z" fill="#D9D9E2"/>
</svg>
