<svg width="18" height="12" viewBox="0 0 18 12" fill="none" xmlns="http://www.w3.org/2000/svg">
<path fill-rule="evenodd" clip-rule="evenodd" d="M15.6667 0.166992C16.1087 0.166992 16.5326 0.342587 16.8452 0.655147C17.1578 0.967708 17.3334 1.39163 17.3334 1.83366V10.167C17.3334 10.609 17.1578 11.0329 16.8452 11.3455C16.5326 11.6581 16.1087 11.8337 15.6667 11.8337H2.33335C1.89133 11.8337 1.4674 11.6581 1.15484 11.3455C0.842282 11.0329 0.666687 10.609 0.666687 10.167L0.666687 1.83366C0.666687 1.39163 0.842282 0.967708 1.15484 0.655147C1.4674 0.342587 1.89133 0.166992 2.33335 0.166992L15.6667 0.166992ZM2.43752 7.66699L2.33335 7.66949V9.34116C2.43684 9.32622 2.54232 9.33372 2.64266 9.36313C2.74299 9.39255 2.83583 9.44319 2.91486 9.51164C2.9939 9.58009 3.0573 9.66473 3.10075 9.75984C3.1442 9.85494 3.16668 9.95827 3.16669 10.0628L3.16502 10.1153L3.15835 10.167H4.83002L4.83335 10.0628C4.83335 9.42741 4.58094 8.81802 4.13163 8.36872C3.68232 7.91941 3.07293 7.66699 2.43752 7.66699ZM15.5625 7.66699C14.9515 7.667 14.3636 7.90047 13.919 8.31964C13.4744 8.73882 13.2068 9.31202 13.1709 9.92199L13.1667 10.0628C13.1667 10.0978 13.1667 10.1328 13.1692 10.167H14.8409C14.8247 10.0548 14.8349 9.94034 14.8706 9.83276C14.9064 9.72518 14.9668 9.62742 15.0469 9.54725C15.1271 9.46708 15.2249 9.40672 15.3325 9.37094C15.44 9.33516 15.5545 9.32497 15.6667 9.34116V7.66949L15.5625 7.66699ZM9.00002 2.66699C8.11597 2.66699 7.26812 3.01818 6.643 3.6433C6.01788 4.26842 5.66669 5.11627 5.66669 6.00033C5.66669 6.88438 6.01788 7.73223 6.643 8.35735C7.26812 8.98247 8.11597 9.33366 9.00002 9.33366C9.88408 9.33366 10.7319 8.98247 11.357 8.35735C11.9822 7.73223 12.3334 6.88438 12.3334 6.00033C12.3334 5.11627 11.9822 4.26842 11.357 3.6433C10.7319 3.01818 9.88408 2.66699 9.00002 2.66699ZM9.00002 4.33366C9.44205 4.33366 9.86597 4.50925 10.1785 4.82181C10.4911 5.13438 10.6667 5.5583 10.6667 6.00033C10.6667 6.44235 10.4911 6.86628 10.1785 7.17884C9.86597 7.4914 9.44205 7.66699 9.00002 7.66699C8.55799 7.66699 8.13407 7.4914 7.82151 7.17884C7.50895 6.86628 7.33335 6.44235 7.33335 6.00033C7.33335 5.5583 7.50895 5.13438 7.82151 4.82181C8.13407 4.50925 8.55799 4.33366 9.00002 4.33366ZM4.83335 1.83366L3.16669 1.83366V1.93783C3.16668 2.04238 3.1442 2.14572 3.10075 2.24082C3.0573 2.33592 2.9939 2.42056 2.91486 2.48901C2.83583 2.55746 2.74299 2.60811 2.64266 2.63752C2.54232 2.66694 2.43684 2.67443 2.33335 2.65949V4.33116L2.43752 4.33366C2.75215 4.33366 3.06369 4.27169 3.35437 4.15129C3.64504 4.03089 3.90916 3.85441 4.13163 3.63194C4.3541 3.40946 4.53058 3.14535 4.65098 2.85467C4.77138 2.564 4.83335 2.25245 4.83335 1.93783V1.83366ZM14.8409 1.83366H13.1692L13.1667 1.93783C13.1667 2.54886 13.4002 3.1368 13.8193 3.58137C14.2385 4.02595 14.8117 4.29357 15.4217 4.32949L15.615 4.33283L15.6667 4.33116V2.65949C15.5632 2.67443 15.4577 2.66694 15.3574 2.63752C15.257 2.60811 15.1642 2.55746 15.0852 2.48901C15.0061 2.42056 14.9427 2.33592 14.8993 2.24082C14.8558 2.14572 14.8334 2.04238 14.8334 1.93783L14.835 1.88533L14.8409 1.83366Z" fill="#593983"/>
</svg>
