<svg width="20" height="20" viewBox="0 0 20 20" fill="none" xmlns="http://www.w3.org/2000/svg">
<path d="M6.667 0.569687C6.80811 0.519778 6.95863 0.502183 7.10745 0.5182C7.25627 0.534218 7.3996 0.583439 7.52686 0.662234C7.65412 0.741029 7.76207 0.847387 7.84275 0.973464C7.92343 1.09954 7.97477 1.24212 7.993 1.39069L8 1.51169V9.99969C7.99984 10.5043 8.19041 10.9903 8.5335 11.3602C8.87659 11.7302 9.34684 11.9568 9.85 11.9947L10 11.9997H18.488C18.648 11.9997 18.8056 12.038 18.9476 12.1115C19.0897 12.1851 19.2121 12.2916 19.3044 12.4222C19.3968 12.5527 19.4565 12.7036 19.4786 12.862C19.5006 13.0205 19.4843 13.1819 19.431 13.3327C18.058 17.2157 14.356 19.9997 10 19.9997C4.477 19.9997 0 15.5227 0 9.99969C0 5.64369 2.784 1.94169 6.667 0.569687ZM10.989 0.0546875L11.109 0.0606875C13.3641 0.312914 15.4664 1.32428 17.0709 2.9288C18.6754 4.53331 19.6868 6.63563 19.939 8.89069C19.9678 9.15229 19.8923 9.4147 19.7288 9.62099C19.5654 9.82729 19.3272 9.96084 19.066 9.99269L18.946 9.99969H11C10.7551 9.99965 10.5187 9.90973 10.3356 9.74697C10.1526 9.58421 10.0357 9.35994 10.007 9.11669L10 8.99969V1.05469C9.99998 0.791366 10.1038 0.538665 10.289 0.351441C10.4742 0.164218 10.7257 0.057584 10.989 0.0546875Z" fill="#593983"/>
</svg>
