<svg width="16" height="14" viewBox="0 0 16 14" fill="none" xmlns="http://www.w3.org/2000/svg">
<path fill-rule="evenodd" clip-rule="evenodd" d="M2.16667 1.16634C2.16667 0.945327 2.07887 0.733366 1.92259 0.577086C1.76631 0.420805 1.55435 0.333008 1.33333 0.333008C1.11232 0.333008 0.900358 0.420805 0.744078 0.577086C0.587797 0.733366 0.5 0.945327 0.5 1.16634V12.833C0.5 13.054 0.587797 13.266 0.744078 13.4223C0.900358 13.5785 1.11232 13.6663 1.33333 13.6663H14.6667C14.8877 13.6663 15.0996 13.5785 15.2559 13.4223C15.4122 13.266 15.5 13.054 15.5 12.833C15.5 12.612 15.4122 12.4 15.2559 12.2438C15.0996 12.0875 14.8877 11.9997 14.6667 11.9997H2.16667V1.16634ZM15.5 6.98801C15.4987 6.87857 15.4759 6.77046 15.4329 6.66983C15.3899 6.56921 15.3274 6.47805 15.2491 6.40156C15.1709 6.32507 15.0783 6.26474 14.9767 6.22402C14.8751 6.18331 14.7665 6.163 14.6571 6.16426C14.5476 6.16552 14.4395 6.18832 14.3389 6.23136C14.2383 6.2744 14.1471 6.33684 14.0706 6.41511C13.9941 6.49338 13.9338 6.58596 13.8931 6.68754C13.8524 6.78913 13.8321 6.89774 13.8333 7.00717L13.8383 7.46134L10.7233 4.34634C10.5671 4.19012 10.3551 4.10235 10.1342 4.10235C9.9132 4.10235 9.70127 4.19012 9.545 4.34634L7.1875 6.70301L4.24167 3.75634C4.16424 3.67892 4.07232 3.6175 3.97116 3.5756C3.87 3.53369 3.76158 3.51213 3.65208 3.51213C3.54259 3.51213 3.43416 3.53369 3.333 3.5756C3.23184 3.6175 3.13993 3.67892 3.0625 3.75634C2.98507 3.83377 2.92366 3.92568 2.88176 4.02684C2.83985 4.12801 2.81829 4.23643 2.81829 4.34592C2.81829 4.45542 2.83985 4.56384 2.88176 4.665C2.92366 4.76617 2.98507 4.85808 3.0625 4.93551L6.59833 8.47051C6.75461 8.62673 6.96653 8.7145 7.1875 8.7145C7.40847 8.7145 7.62039 8.62673 7.77667 8.47051L10.1342 6.11384L14.1067 10.0872C14.2238 10.2046 14.3734 10.2845 14.5362 10.3165C14.6989 10.3484 14.8676 10.3311 15.0205 10.2666C15.1733 10.2022 15.3035 10.0936 15.3943 9.95472C15.485 9.81586 15.5323 9.65306 15.53 9.48717L15.5 6.98801Z" fill="#593983"/>
</svg>
