<svg width="18" height="18" viewBox="0 0 18 18" fill="none" xmlns="http://www.w3.org/2000/svg">
<path d="M9.00033 0.666992C13.6028 0.666992 17.3337 4.39783 17.3337 9.00033C17.3337 13.6028 13.6028 17.3337 9.00033 17.3337H2.33366C1.89163 17.3337 1.46771 17.1581 1.15515 16.8455C0.842587 16.5329 0.666992 16.109 0.666992 15.667V9.00033C0.666992 4.39783 4.39783 0.666992 9.00033 0.666992ZM9.00033 10.667H6.50033C6.27931 10.667 6.06735 10.7548 5.91107 10.9111C5.75479 11.0674 5.66699 11.2793 5.66699 11.5003C5.66699 11.7213 5.75479 11.9333 5.91107 12.0896C6.06735 12.2459 6.27931 12.3337 6.50033 12.3337H9.00033C9.22134 12.3337 9.4333 12.2459 9.58958 12.0896C9.74586 11.9333 9.83366 11.7213 9.83366 11.5003C9.83366 11.2793 9.74586 11.0674 9.58958 10.9111C9.4333 10.7548 9.22134 10.667 9.00033 10.667ZM11.5003 7.33366H6.50033C6.28793 7.33389 6.08363 7.41522 5.92918 7.56103C5.77474 7.70684 5.6818 7.90612 5.66935 8.11815C5.6569 8.33019 5.72589 8.53897 5.86221 8.70185C5.99854 8.86473 6.19191 8.96941 6.40283 8.99449L6.50033 9.00033H11.5003C11.7127 9.00009 11.917 8.91876 12.0715 8.77295C12.2259 8.62714 12.3189 8.42786 12.3313 8.21583C12.3438 8.0038 12.2748 7.79501 12.1384 7.63213C12.0021 7.46925 11.8087 7.36458 11.5978 7.33949L11.5003 7.33366Z" fill="#D9D9E2"/>
</svg>
