<svg width="16" height="12" viewBox="0 0 16 12" fill="none" xmlns="http://www.w3.org/2000/svg">
<path fill-rule="evenodd" clip-rule="evenodd" d="M15.1595 0.832689C15.3704 1.04366 15.4889 1.32975 15.4889 1.62806C15.4889 1.92637 15.3704 2.21247 15.1595 2.42344L6.72727 10.8557C6.61584 10.9671 6.48354 11.0556 6.33793 11.1159C6.19232 11.1762 6.03625 11.2073 5.87865 11.2073C5.72104 11.2073 5.56497 11.1762 5.41936 11.1159C5.27375 11.0556 5.14145 10.9671 5.03002 10.8557L0.84052 6.66694C0.733071 6.56316 0.647366 6.43902 0.588406 6.30177C0.529445 6.16452 0.498411 6.01689 0.497113 5.86752C0.495815 5.71814 0.524279 5.57 0.580845 5.43174C0.637411 5.29348 0.720946 5.16787 0.826575 5.06224C0.932205 4.95662 1.05781 4.87308 1.19607 4.81651C1.33433 4.75995 1.48247 4.73148 1.63185 4.73278C1.78122 4.73408 1.92885 4.76512 2.0661 4.82408C2.20335 4.88304 2.32749 4.96874 2.43127 5.07619L5.87827 8.52319L13.568 0.832689C13.6725 0.728147 13.7965 0.645216 13.9331 0.588634C14.0696 0.532052 14.216 0.50293 14.3638 0.50293C14.5116 0.50293 14.6579 0.532052 14.7945 0.588634C14.931 0.645216 15.055 0.728147 15.1595 0.832689Z" fill="#46CD51"/>
</svg>
