<svg width="68" height="57" viewBox="0 0 68 57" fill="none" xmlns="http://www.w3.org/2000/svg">
<path fill-rule="evenodd" clip-rule="evenodd" d="M58.9843 1.44279C59.723 0.998489 60.605 0.857574 61.4452 1.04962C62.2855 1.24167 63.0187 1.75174 63.491 2.47279L66.791 7.50613C67.2212 8.16366 67.4053 8.95203 67.3107 9.73208C67.2162 10.5121 66.8491 11.2337 66.2743 11.7695L66.2644 11.7828L66.2177 11.8261L66.0277 12.0028L65.2777 12.7195C61.1276 16.7448 57.1035 20.8979 53.211 25.1728C45.8877 33.2261 37.191 43.7661 31.3377 53.9928C29.7043 56.8461 25.7143 57.4595 23.3477 54.9961L1.73101 32.5361C1.42123 32.2141 1.17934 31.8331 1.01973 31.4158C0.860123 30.9985 0.786046 30.5533 0.801905 30.1068C0.817764 29.6602 0.923235 29.2215 1.11205 28.8165C1.30086 28.4115 1.56917 28.0487 1.90101 27.7495L8.43435 21.8561C9.00848 21.3385 9.74468 21.0365 10.5169 21.0018C11.2892 20.9672 12.0495 21.202 12.6677 21.6661L23.6977 29.9361C40.9277 12.9461 50.6977 6.42612 58.9843 1.44279Z" fill="#46CD51"/>
</svg>
