<svg width="18" height="19" viewBox="0 0 18 19" fill="none" xmlns="http://www.w3.org/2000/svg">
<path d="M1.6665 8.84027C1.79564 8.71114 1.96747 8.63356 2.14974 8.6221C2.33201 8.61064 2.5122 8.66608 2.6565 8.77802L2.727 8.84027L5.9085 12.0225C6.04301 12.1575 6.1211 12.3386 6.12692 12.5291C6.13274 12.7195 6.06584 12.9051 5.93981 13.048C5.81379 13.1909 5.63808 13.2805 5.44839 13.2986C5.2587 13.3166 5.06924 13.2618 4.9185 13.1453L4.848 13.083L1.6665 9.90152C1.59677 9.83186 1.54145 9.74915 1.5037 9.6581C1.46596 9.56705 1.44653 9.46946 1.44653 9.37089C1.44653 9.27233 1.46596 9.17474 1.5037 9.08369C1.54145 8.99264 1.59677 8.90992 1.6665 8.84027ZM17.0835 4.59827C17.2126 4.72741 17.2902 4.89924 17.3017 5.08151C17.3131 5.26378 17.2577 5.44397 17.1457 5.58827L17.0835 5.65877L9.71175 13.0298C9.56885 13.1728 9.37838 13.2585 9.17652 13.2704C8.97465 13.2822 8.77545 13.2196 8.61675 13.0943L8.54475 13.0305L5.4165 9.90152C5.28056 9.76686 5.20122 9.58534 5.19474 9.39411C5.18825 9.20288 5.2551 9.01639 5.3816 8.87283C5.5081 8.72927 5.68469 8.63949 5.87522 8.62187C6.06575 8.60424 6.25581 8.6601 6.4065 8.77802L6.477 8.84027L9.12825 11.4923L16.023 4.59827C16.1636 4.45767 16.3544 4.37868 16.5532 4.37868C16.7521 4.37868 16.9429 4.45767 17.0835 4.59827ZM13.3335 4.59827C13.4626 4.72741 13.5402 4.89924 13.5517 5.08151C13.5631 5.26378 13.5077 5.44397 13.3957 5.58827L13.3335 5.65877L9.621 9.37127C9.48603 9.50578 9.30492 9.58387 9.11446 9.58969C8.924 9.59551 8.73846 9.52861 8.59554 9.40258C8.45261 9.27656 8.36302 9.10086 8.34495 8.91116C8.32688 8.72147 8.38169 8.53201 8.49825 8.38127L8.5605 8.31002L12.273 4.59752C12.4136 4.45692 12.6044 4.37793 12.8032 4.37793C13.0021 4.37793 13.1929 4.45767 13.3335 4.59827Z" fill="#3BC966"/>
</svg>
