<svg width="18" height="18" viewBox="0 0 18 18" fill="none" xmlns="http://www.w3.org/2000/svg">
<path fill-rule="evenodd" clip-rule="evenodd" d="M4 0C2.93913 0 1.92172 0.421427 1.17157 1.17157C0.421427 1.92172 0 2.93913 0 4C0 5.06087 0.421427 6.07828 1.17157 6.82843C1.92172 7.57857 2.93913 8 4 8C5.06087 8 6.07828 7.57857 6.82843 6.82843C7.57857 6.07828 8 5.06087 8 4C8 2.93913 7.57857 1.92172 6.82843 1.17157C6.07828 0.421427 5.06087 0 4 0ZM2 4C2 3.46957 2.21071 2.96086 2.58579 2.58579C2.96086 2.21071 3.46957 2 4 2C4.53043 2 5.03914 2.21071 5.41421 2.58579C5.78929 2.96086 6 3.46957 6 4C6 4.53043 5.78929 5.03914 5.41421 5.41421C5.03914 5.78929 4.53043 6 4 6C3.46957 6 2.96086 5.78929 2.58579 5.41421C2.21071 5.03914 2 4.53043 2 4ZM4 10C2.93913 10 1.92172 10.4214 1.17157 11.1716C0.421427 11.9217 0 12.9391 0 14C0 15.0609 0.421427 16.0783 1.17157 16.8284C1.92172 17.5786 2.93913 18 4 18C5.06087 18 6.07828 17.5786 6.82843 16.8284C7.57857 16.0783 8 15.0609 8 14C8 12.9391 7.57857 11.9217 6.82843 11.1716C6.07828 10.4214 5.06087 10 4 10ZM2 14C2 13.4696 2.21071 12.9609 2.58579 12.5858C2.96086 12.2107 3.46957 12 4 12C4.53043 12 5.03914 12.2107 5.41421 12.5858C5.78929 12.9609 6 13.4696 6 14C6 14.5304 5.78929 15.0391 5.41421 15.4142C5.03914 15.7893 4.53043 16 4 16C3.46957 16 2.96086 15.7893 2.58579 15.4142C2.21071 15.0391 2 14.5304 2 14ZM10 4C10 2.93913 10.4214 1.92172 11.1716 1.17157C11.9217 0.421427 12.9391 0 14 0C15.0609 0 16.0783 0.421427 16.8284 1.17157C17.5786 1.92172 18 2.93913 18 4C18 5.06087 17.5786 6.07828 16.8284 6.82843C16.0783 7.57857 15.0609 8 14 8C12.9391 8 11.9217 7.57857 11.1716 6.82843C10.4214 6.07828 10 5.06087 10 4ZM14 2C13.4696 2 12.9609 2.21071 12.5858 2.58579C12.2107 2.96086 12 3.46957 12 4C12 4.53043 12.2107 5.03914 12.5858 5.41421C12.9609 5.78929 13.4696 6 14 6C14.5304 6 15.0391 5.78929 15.4142 5.41421C15.7893 5.03914 16 4.53043 16 4C16 3.46957 15.7893 2.96086 15.4142 2.58579C15.0391 2.21071 14.5304 2 14 2ZM14 10C12.9391 10 11.9217 10.4214 11.1716 11.1716C10.4214 11.9217 10 12.9391 10 14C10 15.0609 10.4214 16.0783 11.1716 16.8284C11.9217 17.5786 12.9391 18 14 18C15.0609 18 16.0783 17.5786 16.8284 16.8284C17.5786 16.0783 18 15.0609 18 14C18 12.9391 17.5786 11.9217 16.8284 11.1716C16.0783 10.4214 15.0609 10 14 10ZM12 14C12 13.4696 12.2107 12.9609 12.5858 12.5858C12.9609 12.2107 13.4696 12 14 12C14.5304 12 15.0391 12.2107 15.4142 12.5858C15.7893 12.9609 16 13.4696 16 14C16 14.5304 15.7893 15.0391 15.4142 15.4142C15.0391 15.7893 14.5304 16 14 16C13.4696 16 12.9609 15.7893 12.5858 15.4142C12.2107 15.0391 12 14.5304 12 14Z" fill="#593983"/>
</svg>
