<svg width="10" height="10" viewBox="0 0 10 10" fill="none" xmlns="http://www.w3.org/2000/svg">
<path fill-rule="evenodd" clip-rule="evenodd" d="M5.00004 5.94244L8.77138 9.71377C8.89711 9.83521 9.06551 9.90241 9.24031 9.90089C9.41511 9.89937 9.58232 9.82926 9.70592 9.70565C9.82953 9.58205 9.89964 9.41484 9.90116 9.24004C9.90268 9.06524 9.83548 8.89684 9.71404 8.77111L5.94271 4.99977L9.71404 1.22844C9.83548 1.10271 9.90268 0.934304 9.90116 0.759507C9.89964 0.584709 9.82953 0.417501 9.70592 0.293895C9.58232 0.17029 9.41511 0.100177 9.24031 0.098658C9.06551 0.0971391 8.89711 0.164335 8.77138 0.285774L5.00004 4.05711L1.22871 0.285774C1.10241 0.167337 0.934987 0.102684 0.761865 0.105496C0.588743 0.108307 0.423506 0.178362 0.301118 0.300837C0.17873 0.423312 0.108791 0.588598 0.106103 0.761722C0.103414 0.934845 0.168185 1.10222 0.286711 1.22844L4.05738 4.99977L0.286045 8.77111C0.222371 8.83261 0.171583 8.90617 0.136644 8.9875C0.101705 9.06884 0.0833139 9.15632 0.0825447 9.24484C0.0817755 9.33336 0.0986432 9.42115 0.132164 9.50308C0.165684 9.58501 0.215186 9.65944 0.277782 9.72204C0.340377 9.78463 0.414811 9.83413 0.496742 9.86765C0.578673 9.90118 0.666459 9.91805 0.754979 9.91728C0.843498 9.91651 0.930979 9.89812 1.01231 9.86318C1.09365 9.82824 1.16721 9.77745 1.22871 9.71377L5.00004 5.94244Z" fill="#9494A9"/>
</svg>
