<svg width="18" height="17" viewBox="0 0 18 17" fill="none" xmlns="http://www.w3.org/2000/svg">
<path d="M12.75 7.16667C13.5463 7.16661 14.3288 7.37401 15.0206 7.76845C15.7123 8.16289 16.2894 8.73075 16.6949 9.41607C17.1004 10.1014 17.3203 10.8805 17.333 11.6767C17.3458 12.473 17.1508 13.2587 16.7675 13.9567L17.0891 15.0492C17.1316 15.1935 17.1345 15.3467 17.0973 15.4926C17.0602 15.6384 16.9844 15.7716 16.8779 15.878C16.7715 15.9844 16.6384 16.0602 16.4925 16.0974C16.3467 16.1345 16.1935 16.1317 16.0491 16.0892L14.9575 15.7675C14.3449 16.1039 13.6636 16.2957 12.9655 16.3283C12.2675 16.361 11.5712 16.2336 10.9299 15.9558C10.2887 15.6781 9.71939 15.2574 9.26565 14.726C8.8119 14.1945 8.4857 13.5663 8.31197 12.8894C8.13824 12.2126 8.12159 11.5049 8.26329 10.8206C8.405 10.1363 8.7013 9.49348 9.12955 8.94125C9.55779 8.38903 10.1066 7.94205 10.7341 7.63447C11.3616 7.3269 12.0511 7.16689 12.75 7.16667ZM8.16662 0.5C9.82489 0.500228 11.4364 1.04978 12.7493 2.06279C14.0621 3.0758 15.0025 4.49519 15.4233 6.09917C14.162 5.50134 12.737 5.34291 11.3752 5.64911C10.0134 5.95532 8.79337 6.70854 7.90943 7.78873C7.02549 8.86891 6.52857 10.2139 6.49785 11.6093C6.46714 13.0047 6.9044 14.3703 7.73995 15.4883C6.53402 15.4212 5.36241 15.0623 4.32579 14.4425L2.11746 15.0925C1.97261 15.1352 1.81892 15.1381 1.67257 15.1009C1.52622 15.0636 1.39262 14.9876 1.28583 14.8808C1.17905 14.774 1.10302 14.6404 1.06577 14.4941C1.02851 14.3477 1.0314 14.194 1.07412 14.0492L1.72412 11.8408C1.04532 10.7023 0.680363 9.40427 0.66643 8.07883C0.652497 6.7534 0.990083 5.44795 1.64481 4.29543C2.29953 3.14291 3.248 2.18449 4.39363 1.51779C5.53926 0.851076 6.84112 0.499893 8.16662 0.5Z" fill="#D9D9E2"/>
</svg>
