<svg width="20" height="21" viewBox="0 0 20 21" fill="none" xmlns="http://www.w3.org/2000/svg">
<path fill-rule="evenodd" clip-rule="evenodd" d="M7 0.5C6.46957 0.5 5.96086 0.710714 5.58579 1.08579C5.21071 1.46086 5 1.96957 5 2.5V4.5H7V2.5H18V13.5H16V15.5H18C18.5304 15.5 19.0391 15.2893 19.4142 14.9142C19.7893 14.5391 20 14.0304 20 13.5V2.5C20 1.96957 19.7893 1.46086 19.4142 1.08579C19.0391 0.710714 18.5304 0.5 18 0.5H7ZM2 5.5C1.46957 5.5 0.960859 5.71071 0.585786 6.08579C0.210714 6.46086 0 6.96957 0 7.5V18.5C0 19.0304 0.210714 19.5391 0.585786 19.9142C0.960859 20.2893 1.46957 20.5 2 20.5H13C13.5304 20.5 14.0391 20.2893 14.4142 19.9142C14.7893 19.5391 15 19.0304 15 18.5V7.5C15 6.96957 14.7893 6.46086 14.4142 6.08579C14.0391 5.71071 13.5304 5.5 13 5.5H2ZM2 7.5H13V18.5H2V7.5Z" fill="#1E112E"/>
</svg>
