<svg width="18" height="21" viewBox="0 0 18 21" fill="none" xmlns="http://www.w3.org/2000/svg">
<path fill-rule="evenodd" clip-rule="evenodd" d="M11.28 0.5C11.6998 0.500109 12.1088 0.632286 12.4493 0.877808C12.7898 1.12333 13.0444 1.46975 13.177 1.868L13.72 3.5H17C17.2652 3.5 17.5196 3.60536 17.7071 3.79289C17.8946 3.98043 18 4.23478 18 4.5C18 4.76522 17.8946 5.01957 17.7071 5.20711C17.5196 5.39464 17.2652 5.5 17 5.5H16V17.5C16 18.2956 15.6839 19.0587 15.1213 19.6213C14.5587 20.1839 13.7956 20.5 13 20.5H5C4.20435 20.5 3.44129 20.1839 2.87868 19.6213C2.31607 19.0587 2 18.2956 2 17.5V5.5H1C0.734784 5.5 0.48043 5.39464 0.292893 5.20711C0.105357 5.01957 0 4.76522 0 4.5C0 4.23478 0.105357 3.98043 0.292893 3.79289C0.48043 3.60536 0.734784 3.5 1 3.5H4.28L4.823 1.868C4.9557 1.46959 5.21043 1.12305 5.5511 0.877515C5.89176 0.631978 6.30107 0.499899 6.721 0.5H11.28ZM14 5.5H4V17.5C4 17.7652 4.10536 18.0196 4.29289 18.2071C4.48043 18.3946 4.73478 18.5 5 18.5H13C13.2652 18.5 13.5196 18.3946 13.7071 18.2071C13.8946 18.0196 14 17.7652 14 17.5V5.5ZM11.28 2.5H6.72L6.387 3.5H11.613L11.28 2.5Z" fill="#F43F5E"/>
</svg>
