<svg width="28" height="34" viewBox="0 0 28 34" fill="none" xmlns="http://www.w3.org/2000/svg">
<path fill-rule="evenodd" clip-rule="evenodd" d="M14 0.333008V11.1663C14 11.8294 14.2634 12.4653 14.7322 12.9341C15.201 13.4029 15.8369 13.6663 16.5 13.6663H27.3333V30.333C27.3333 31.2171 26.9821 32.0649 26.357 32.69C25.7319 33.3152 24.884 33.6663 24 33.6663H3.99996C3.1159 33.6663 2.26806 33.3152 1.64294 32.69C1.01782 32.0649 0.666626 31.2171 0.666626 30.333V3.66634C0.666626 2.78229 1.01782 1.93444 1.64294 1.30932C2.26806 0.684197 3.1159 0.333008 3.99996 0.333008H14ZM17.44 18.0813L16.5 20.5863L15.7166 18.498C15.1216 16.9113 12.8783 16.9113 12.2833 18.498L11.5 20.5863L10.56 18.0813C10.3967 17.6788 10.0828 17.3559 9.68497 17.1814C9.28718 17.0069 8.83699 16.9946 8.43027 17.1472C8.02355 17.2997 7.69245 17.605 7.50747 17.998C7.3225 18.391 7.29828 18.8407 7.43996 19.2513L9.78329 25.5013C10.3783 27.088 12.6216 27.088 13.2166 25.5013L14 23.413L14.7833 25.5013C15.3783 27.088 17.6216 27.088 18.2166 25.5013L20.56 19.2513C20.7016 18.8407 20.6774 18.391 20.4924 17.998C20.3075 17.605 19.9764 17.2997 19.5696 17.1472C19.1629 16.9946 18.7127 17.0069 18.3149 17.1814C17.9172 17.3559 17.6032 17.6788 17.44 18.0813ZM17.3333 0.404674C17.9648 0.5386 18.5438 0.852994 19 1.30967L26.3566 8.66634C26.8133 9.12255 27.1277 9.70154 27.2616 10.333H17.3333V0.404674Z" fill="#5192E6"/>
</svg>
