<svg width="28" height="34" viewBox="0 0 28 34" fill="none" xmlns="http://www.w3.org/2000/svg">
<path fill-rule="evenodd" clip-rule="evenodd" d="M14 0.333008V11.1663C14 11.8294 14.2634 12.4653 14.7322 12.9341C15.201 13.4029 15.8369 13.6663 16.5 13.6663H27.3333V30.333C27.3333 31.2171 26.9821 32.0649 26.357 32.69C25.7319 33.3152 24.884 33.6663 24 33.6663H3.99996C3.1159 33.6663 2.26806 33.3152 1.64294 32.69C1.01782 32.0649 0.666626 31.2171 0.666626 30.333V3.66634C0.666626 2.78229 1.01782 1.93444 1.64294 1.30932C2.26806 0.684197 3.1159 0.333008 3.99996 0.333008H14ZM19 21.9997H8.99996C8.55793 21.9997 8.13401 22.1753 7.82145 22.4878C7.50889 22.8004 7.33329 23.2243 7.33329 23.6663C7.33329 24.1084 7.50889 24.5323 7.82145 24.8449C8.13401 25.1574 8.55793 25.333 8.99996 25.333H19C19.442 25.333 19.8659 25.1574 20.1785 24.8449C20.491 24.5323 20.6666 24.1084 20.6666 23.6663C20.6666 23.2243 20.491 22.8004 20.1785 22.4878C19.8659 22.1753 19.442 21.9997 19 21.9997ZM10.6666 15.333H8.99996C8.55793 15.333 8.13401 15.5086 7.82145 15.8212C7.50889 16.1337 7.33329 16.5576 7.33329 16.9997C7.33329 17.4417 7.50889 17.8656 7.82145 18.1782C8.13401 18.4907 8.55793 18.6663 8.99996 18.6663H10.6666C11.1087 18.6663 11.5326 18.4907 11.8451 18.1782C12.1577 17.8656 12.3333 17.4417 12.3333 16.9997C12.3333 16.5576 12.1577 16.1337 11.8451 15.8212C11.5326 15.5086 11.1087 15.333 10.6666 15.333ZM17.3333 0.404674C17.9648 0.5386 18.5438 0.852994 19 1.30967L26.3566 8.66634C26.8133 9.12255 27.1277 9.70154 27.2616 10.333H17.3333V0.404674Z" fill="#9494A9"/>
</svg>
