<svg width="12" height="14" viewBox="0 0 12 14" fill="none" xmlns="http://www.w3.org/2000/svg">
<path d="M11.3333 8.99967C11.5101 8.99967 11.6797 9.06991 11.8047 9.19494C11.9298 9.31996 12 9.48953 12 9.66634V12.333C12 12.6866 11.8595 13.0258 11.6095 13.2758C11.3594 13.5259 11.0203 13.6663 10.6667 13.6663H1.33333C0.979711 13.6663 0.640573 13.5259 0.390524 13.2758C0.140476 13.0258 0 12.6866 0 12.333V9.66634C0 9.48953 0.0702379 9.31996 0.195262 9.19494C0.320286 9.06991 0.489856 8.99967 0.666667 8.99967C0.843478 8.99967 1.01305 9.06991 1.13807 9.19494C1.2631 9.31996 1.33333 9.48953 1.33333 9.66634V12.333H10.6667V9.66634C10.6667 9.48953 10.7369 9.31996 10.8619 9.19494C10.987 9.06991 11.1565 8.99967 11.3333 8.99967ZM6 0.333008C6.17681 0.333008 6.34638 0.403246 6.4714 0.52827C6.59643 0.653294 6.66667 0.822863 6.66667 0.999674V7.82834L8.35733 6.13767C8.41883 6.074 8.49239 6.02321 8.57373 5.98827C8.65507 5.95333 8.74255 5.93494 8.83107 5.93417C8.91959 5.9334 9.00737 5.95027 9.0893 5.98379C9.17123 6.01731 9.24567 6.06682 9.30826 6.12941C9.37086 6.19201 9.42036 6.26644 9.45388 6.34837C9.4874 6.4303 9.50427 6.51809 9.5035 6.60661C9.50273 6.69513 9.48434 6.78261 9.4494 6.86394C9.41446 6.94528 9.36367 7.01884 9.3 7.08034L6.58933 9.79101C6.51195 9.86841 6.42007 9.92982 6.31895 9.97171C6.21784 10.0136 6.10945 10.0352 6 10.0352C5.89055 10.0352 5.78217 10.0136 5.68105 9.97171C5.57993 9.92982 5.48805 9.86841 5.41067 9.79101L2.7 7.08034C2.63633 7.01884 2.58554 6.94528 2.5506 6.86394C2.51566 6.78261 2.49727 6.69513 2.4965 6.60661C2.49573 6.51809 2.5126 6.4303 2.54612 6.34837C2.57964 6.26644 2.62914 6.19201 2.69174 6.12941C2.75433 6.06682 2.82877 6.01731 2.9107 5.98379C2.99263 5.95027 3.08041 5.9334 3.16893 5.93417C3.25745 5.93494 3.34493 5.95333 3.42627 5.98827C3.50761 6.02321 3.58117 6.074 3.64267 6.13767L5.33333 7.82834V0.999674C5.33333 0.822863 5.40357 0.653294 5.5286 0.52827C5.65362 0.403246 5.82319 0.333008 6 0.333008Z" fill="#593983"/>
</svg>
