<svg width="18" height="18" viewBox="0 0 18 18" fill="none" xmlns="http://www.w3.org/2000/svg">
<path d="M10.2367 1.60097C9.41782 1.46504 8.58211 1.46504 7.76322 1.60097C7.51122 1.94297 7.26522 2.38472 7.04097 2.92397C6.82947 3.43097 6.64347 4.00847 6.48897 4.64222C7.29147 4.54922 8.13372 4.49972 8.99997 4.49972C9.86622 4.49972 10.7085 4.54922 11.511 4.64222C11.3718 4.05636 11.1875 3.48214 10.9597 2.92472C10.7347 2.38472 10.4887 1.94222 10.2367 1.60097ZM11.8065 6.19322C10.8767 6.06288 9.93885 5.99822 8.99997 5.99972C8.01147 5.99972 7.06797 6.06872 6.19347 6.19322C6.06312 7.12302 5.99846 8.06084 5.99997 8.99972C5.99997 9.98822 6.06897 10.9317 6.19347 11.8062C7.06797 11.9307 8.01147 11.9997 8.99997 11.9997C9.98847 11.9997 10.932 11.9315 11.8065 11.8062C11.931 10.9317 12 9.98822 12 8.99972C12 8.01122 11.9317 7.06772 11.8065 6.19322ZM13.3575 11.5107C13.4505 10.7082 13.5 9.86597 13.5 8.99972C13.5 8.13347 13.4505 7.29122 13.3575 6.48872C13.9433 6.62816 14.5176 6.81271 15.075 7.04072C15.615 7.26572 16.0575 7.51097 16.3987 7.76297C16.5347 8.58187 16.5347 9.41758 16.3987 10.2365C16.0575 10.4885 15.615 10.7345 15.0757 10.9595C14.5687 11.1702 13.9912 11.357 13.3575 11.5107ZM11.511 13.3572C10.7085 13.4502 9.86622 13.4997 8.99997 13.4997C8.13372 13.4997 7.29147 13.4502 6.48897 13.3572C6.64347 13.991 6.82947 14.5685 7.04097 15.0747C7.26597 15.6147 7.51122 16.0572 7.76322 16.3985C8.58211 16.5344 9.41782 16.5344 10.2367 16.3985C10.4887 16.0572 10.7347 15.6147 10.9597 15.0755C11.1705 14.5685 11.3572 13.991 11.511 13.3572ZM12.3105 15.7317L12.3442 15.6522C12.6555 14.9052 12.9127 14.045 13.1047 13.1045C13.8751 12.9512 14.6317 12.735 15.3667 12.458L15.732 12.3102C14.9989 13.796 13.7963 14.9986 12.3105 15.7317ZM5.68947 15.7317L5.65572 15.6522C5.34447 14.9052 5.08722 14.045 4.89522 13.1045C4.12479 12.9512 3.36825 12.735 2.63322 12.458L2.26797 12.3102C3.00108 13.796 4.20367 14.9986 5.68947 15.7317ZM4.64247 11.5107C4.54668 10.6772 4.4991 9.83877 4.49997 8.99972C4.49997 8.13347 4.54947 7.29122 4.64247 6.48872C4.00872 6.64322 3.43122 6.82922 2.92497 7.04072C2.38497 7.26572 1.94247 7.51097 1.60122 7.76297C1.46528 8.58187 1.46528 9.41758 1.60122 10.2365C1.94322 10.4885 2.38497 10.7345 2.92422 10.9595C3.43122 11.1702 4.00872 11.357 4.64247 11.5107ZM4.89522 4.89572C5.0486 4.12477 5.26507 3.36772 5.54247 2.63222L5.69022 2.26697C4.20442 3.00009 3.00183 4.20268 2.26872 5.68847L2.34822 5.65472C3.09522 5.34347 3.95547 5.08622 4.89597 4.89422M13.1055 4.89422C12.9523 4.12355 12.736 3.36675 12.459 2.63147L12.3112 2.26622C13.797 2.99934 14.9996 4.20193 15.7327 5.68772L15.6532 5.65397C14.9062 5.34272 14.046 5.08622 13.1055 4.89422Z" fill="white"/>
</svg>
