<svg width="20" height="20" viewBox="0 0 20 20" fill="none" xmlns="http://www.w3.org/2000/svg">
<path d="M19.815 11.9253C19.4457 13.8014 18.5469 15.5326 17.2249 16.9141C15.903 18.2957 14.213 19.2698 12.355 19.7213C12.865 19.1193 13.307 18.3393 13.674 17.4543C14.039 16.5743 14.344 15.5533 14.57 14.4343C16.247 14.0023 17.766 13.3383 19.04 12.4893C19.308 12.3103 19.567 12.1223 19.815 11.9253ZM0.184978 11.9253C0.432978 12.1223 0.691979 12.3103 0.959979 12.4893C2.23298 13.3383 3.75198 14.0023 5.42998 14.4343C5.65498 15.5533 5.95998 16.5743 6.32598 17.4543C6.69198 18.3383 7.13398 19.1193 7.64398 19.7213C5.78611 19.2696 4.0964 18.2954 2.77461 16.9139C1.45281 15.5324 0.554195 13.8013 0.184978 11.9253ZM12.427 14.8453C12.2713 15.4736 12.0704 16.0899 11.826 16.6893C11.479 17.5273 11.097 18.1443 10.735 18.5353C10.365 18.9353 10.111 19.0003 9.99998 19.0003C9.88898 19.0003 9.63598 18.9353 9.26498 18.5353C8.90298 18.1453 8.52098 17.5273 8.17398 16.6893C7.92953 16.0899 7.72868 15.4736 7.57298 14.8453C8.36098 14.9473 9.17298 15.0003 9.99998 15.0003C10.8115 15.0008 11.6221 14.949 12.427 14.8453ZM12.963 8.7293C13.0412 10.0758 12.9937 11.4266 12.821 12.7643C11.924 12.9183 10.978 13.0003 9.99998 13.0003C9.05434 13.0014 8.1103 12.9224 7.17798 12.7643C7.00279 11.4268 6.95558 10.0757 7.03698 8.7293C7.98298 8.9063 8.97698 9.0003 9.99998 9.0003C10.9939 9.00139 11.9858 8.91067 12.963 8.7293ZM19.066 5.7753C19.526 6.7613 19.831 7.8353 19.946 8.9643C19.445 9.6373 18.769 10.2663 17.93 10.8243C17.06 11.4043 16.034 11.8943 14.891 12.2613C15.0214 10.9167 15.0355 9.56332 14.933 8.2163C15.8771 7.90245 16.7784 7.47214 17.616 6.9353C18.1374 6.59882 18.6233 6.21016 19.066 5.7753ZM0.933979 5.7753C1.36398 6.2023 1.85398 6.5903 2.38398 6.9353C3.2215 7.47232 4.12281 7.90265 5.06698 8.2163C4.96481 9.56332 4.97852 10.9166 5.10798 12.2613C3.96498 11.8943 2.93898 11.4053 2.06898 10.8253C1.23098 10.2663 0.554978 9.6373 0.0529785 8.9643C0.168979 7.8343 0.472979 6.7613 0.932979 5.7743L0.933979 5.7753ZM9.99998 1.0003C10.11 1.0003 10.364 1.0663 10.735 1.4663C11.097 1.8563 11.479 2.4743 11.826 3.3123C12.216 4.2553 12.54 5.4203 12.748 6.7333C11.886 6.9063 10.963 7.0003 9.99998 7.0003C9.07709 7.00206 8.15628 6.91262 7.25098 6.7333C7.45898 5.4203 7.78298 4.2553 8.17398 3.3133C8.52098 2.4743 8.90298 1.8573 9.26398 1.4663C9.63598 1.0663 9.88898 1.0003 9.99998 1.0003ZM12.355 0.279297C14.6087 0.826657 16.6023 2.13982 17.995 3.9943C17.569 4.48439 17.0741 4.91015 16.526 5.2583C15.9464 5.63038 15.329 5.93978 14.684 6.1813C14.453 4.8203 14.104 3.5863 13.674 2.5473C13.307 1.6623 12.866 0.881297 12.355 0.279297ZM7.64498 0.279297C7.13498 0.881297 6.69298 1.6623 6.32598 2.5473C5.89598 3.5873 5.54598 4.8203 5.31598 6.1813C4.671 5.93979 4.05353 5.63038 3.47398 5.2583C2.92548 4.9102 2.43034 4.48444 2.00398 3.9943C3.39694 2.13963 5.39092 0.826446 7.64498 0.279297Z" fill="#593983"/>
</svg>
