<svg width="19" height="20" viewBox="0 0 19 20" fill="none" xmlns="http://www.w3.org/2000/svg">
<path fill-rule="evenodd" clip-rule="evenodd" d="M13.7241 1.52991C13.349 1.15497 12.8404 0.944336 12.3101 0.944336C11.7798 0.944336 11.2711 1.15497 10.8961 1.52991L0.582094 11.8439C0.206995 12.2189 -0.00379298 12.7275 -0.00390625 13.2579V18.4909C-0.00390625 19.0479 0.449094 19.5009 1.00609 19.5009L17.0001 19.4999C17.2653 19.4999 17.5197 19.3946 17.7072 19.207C17.8947 19.0195 18.0001 18.7651 18.0001 18.4999C18.0001 18.2347 17.8947 17.9803 17.7072 17.7928C17.5197 17.6053 17.2653 17.4999 17.0001 17.4999H9.06809L17.9671 8.60091C18.342 8.22585 18.5527 7.71724 18.5527 7.18691C18.5527 6.65658 18.342 6.14796 17.9671 5.77291L13.7241 1.52991ZM6.24009 17.4999L16.5531 7.18691L12.3101 2.94391L1.99609 13.2579V17.4999H6.24009Z" fill="#1E112E"/>
</svg>
