<svg width="17" height="20" viewBox="0 0 17 20" fill="none" xmlns="http://www.w3.org/2000/svg">
<path d="M8.5 0V6.5C8.50002 6.87288 8.63892 7.23239 8.88962 7.50842C9.14032 7.78445 9.48484 7.9572 9.856 7.993L10 8H16.5V18C16.5002 18.5046 16.3096 18.9906 15.9665 19.3605C15.6234 19.7305 15.1532 19.9572 14.65 19.995L14.5 20H2.5C1.99542 20.0002 1.50943 19.8096 1.13945 19.4665C0.769471 19.1234 0.542843 18.6532 0.505 18.15L0.5 18V2C0.49984 1.49542 0.690406 1.00943 1.0335 0.639452C1.37659 0.269471 1.84684 0.0428433 2.35 0.00500011L2.5 0H8.5ZM10.5 0.043C10.8234 0.11165 11.1247 0.259389 11.377 0.473L11.5 0.586L15.914 5C16.1483 5.23411 16.3208 5.52275 16.416 5.84L16.456 6H10.5V0.043Z" fill="#593983"/>
</svg>
