<svg width="16" height="18" viewBox="0 0 16 18" fill="none" xmlns="http://www.w3.org/2000/svg">
<path d="M7.59515 0.785417L6.54515 0.15625L6.34515 1.36375C6.02682 3.27042 4.72432 5.04208 3.28765 6.28708C0.475154 8.72542 -0.140679 11.3754 0.730154 13.5629C1.56349 15.6563 3.67849 17.0896 5.82515 17.3288L6.32182 17.3838C5.09349 16.6329 4.30515 14.8788 4.58015 13.5679C4.85182 12.2796 5.77849 11.0729 7.55849 9.95958L8.45599 9.39958L8.79099 10.4038C8.98849 10.9971 9.33015 11.4738 9.67765 11.9579C9.84432 12.1913 10.0135 12.4271 10.1685 12.6779C10.7043 13.5488 10.846 14.5171 10.5002 15.4779C10.1852 16.3513 9.66599 17.0379 8.95015 17.4188L9.75849 17.3288C11.7735 17.1046 13.2527 16.4154 14.2135 15.2629C15.166 14.1204 15.5002 12.6496 15.5002 11.0838C15.5002 9.62542 14.901 8.12208 14.1943 6.87125C13.366 5.40625 12.2852 4.18958 11.1052 3.01042C10.901 3.41875 10.9168 3.58375 10.4968 4.23958C9.95164 2.79108 8.92786 1.57236 7.59515 0.785417Z" fill="#F49E25"/>
</svg>
