<svg width="13" height="15" viewBox="0 0 13 15" fill="none" xmlns="http://www.w3.org/2000/svg">
<path d="M1.5 0.25C1.10218 0.25 0.720644 0.408035 0.43934 0.68934C0.158035 0.970644 0 1.35218 0 1.75V13.75C0 13.9489 0.0790178 14.1397 0.21967 14.2803C0.360322 14.421 0.551088 14.5 0.75 14.5C0.948912 14.5 1.13968 14.421 1.28033 14.2803C1.42098 14.1397 1.5 13.9489 1.5 13.75V10H11.853C12.0052 10.0001 12.1545 9.958 12.2843 9.87849C12.414 9.79898 12.5193 9.68512 12.5884 9.5495C12.6575 9.41387 12.6877 9.26178 12.6757 9.11004C12.6638 8.95831 12.61 8.81285 12.5205 8.68975L9.927 5.125L12.519 1.56025C12.6085 1.43721 12.6622 1.29181 12.6742 1.14014C12.6862 0.988474 12.6561 0.836436 12.5871 0.700839C12.5181 0.565241 12.4129 0.451366 12.2832 0.371801C12.1536 0.292237 12.0044 0.250083 11.8522 0.25H1.5Z" fill="#D9D9E2"/>
</svg>
