<svg width="24" height="20" viewBox="0 0 24 20" fill="none" xmlns="http://www.w3.org/2000/svg">
<path d="M13.1673 11.6667C14.405 11.6667 15.592 12.1583 16.4671 13.0335C17.3423 13.9087 17.834 15.0957 17.834 16.3333V18.0833C17.834 18.5475 17.6496 18.9926 17.3214 19.3208C16.9932 19.649 16.5481 19.8333 16.084 19.8333H2.08398C1.61986 19.8333 1.17474 19.649 0.846548 19.3208C0.518359 18.9926 0.333984 18.5475 0.333984 18.0833V16.3333C0.333984 15.0957 0.82565 13.9087 1.70082 13.0335C2.57599 12.1583 3.76297 11.6667 5.00065 11.6667H13.1673ZM20.1673 11.6667C21.0956 11.6667 21.9858 12.0354 22.6422 12.6918C23.2986 13.3482 23.6673 14.2384 23.6673 15.1667V16.9167C23.6673 17.3808 23.4829 17.8259 23.1548 18.1541C22.8266 18.4823 22.3814 18.6667 21.9173 18.6667H20.1673V16.3333C20.168 15.4276 19.9575 14.5342 19.5525 13.7241C19.1474 12.914 18.559 12.2095 17.834 11.6667H20.1673ZM9.08398 0C10.4764 0 11.8117 0.553123 12.7963 1.53769C13.7809 2.52226 14.334 3.85761 14.334 5.25C14.334 6.64239 13.7809 7.97774 12.7963 8.96231C11.8117 9.94688 10.4764 10.5 9.08398 10.5C7.6916 10.5 6.35624 9.94688 5.37167 8.96231C4.38711 7.97774 3.83398 6.64239 3.83398 5.25C3.83398 3.85761 4.38711 2.52226 5.37167 1.53769C6.35624 0.553123 7.6916 0 9.08398 0ZM19.0007 3.5C19.9289 3.5 20.8191 3.86875 21.4755 4.52513C22.1319 5.1815 22.5007 6.07174 22.5007 7C22.5007 7.92826 22.1319 8.8185 21.4755 9.47487C20.8191 10.1313 19.9289 10.5 19.0007 10.5C18.0724 10.5 17.1822 10.1313 16.5258 9.47487C15.8694 8.8185 15.5007 7.92826 15.5007 7C15.5007 6.07174 15.8694 5.1815 16.5258 4.52513C17.1822 3.86875 18.0724 3.5 19.0007 3.5Z" fill="#9494A9"/>
</svg>
