<svg width="17" height="16" viewBox="0 0 17 16" fill="none" xmlns="http://www.w3.org/2000/svg">
<path fill-rule="evenodd" clip-rule="evenodd" d="M16.8317 6.66078C16.8858 4.25078 15.6575 2.18578 13.9117 1.16745C12.2783 0.216617 10.2267 0.210784 8.50002 1.61578C6.77335 0.210784 4.72168 0.215784 3.08835 1.16745C1.34252 2.18495 0.114182 4.25078 0.168349 6.66078C0.235849 9.66912 2.57668 12.3225 6.56752 14.6925C6.84335 14.8575 7.11918 15.0241 7.40585 15.17C7.74418 15.3416 8.11418 15.5 8.50002 15.5C8.88585 15.5 9.25585 15.3416 9.59418 15.17C9.88085 15.0241 10.1567 14.8575 10.4325 14.6925C14.4225 12.3225 16.7642 9.66828 16.8317 6.66078ZM9.20252 3.22662C10.4592 1.95495 11.9108 1.93162 13.0725 2.60828C14.2758 3.30912 15.2058 4.79828 15.165 6.62328C15.1567 7.02495 15.0883 7.43162 14.9567 7.84245C14.592 8.08805 14.1532 8.19923 13.7155 8.15697C13.2779 8.11471 12.8685 7.92163 12.5575 7.61078L11.48 6.53245C11.3365 6.38898 11.1662 6.27517 10.9788 6.19752C10.7913 6.11987 10.5904 6.07991 10.3875 6.07991C10.1846 6.07991 9.98371 6.11987 9.79626 6.19752C9.6088 6.27517 9.43848 6.38898 9.29502 6.53245L8.57418 7.25412C8.25477 7.57339 7.82163 7.75274 7.37002 7.75274C6.9184 7.75274 6.48526 7.57339 6.16585 7.25412C6.10177 7.19024 6.05091 7.11436 6.01618 7.03081C5.98146 6.94726 5.96354 6.85769 5.96347 6.76721C5.96339 6.67673 5.98115 6.58712 6.01573 6.50351C6.05032 6.41991 6.10105 6.34394 6.16502 6.27995L9.09585 3.34745C9.12835 3.31578 9.15752 3.28078 9.18252 3.24578C9.18928 3.2395 9.19595 3.23311 9.20252 3.22662Z" fill="#593983"/>
</svg>
