<svg width="18" height="17" viewBox="0 0 18 17" fill="none" xmlns="http://www.w3.org/2000/svg">
<path fill-rule="evenodd" clip-rule="evenodd" d="M7.97665 1.23983C8.26922 1.01224 8.62932 0.888672 8.99998 0.888672C9.37065 0.888672 9.73075 1.01224 10.0233 1.23983L17.01 6.67316C17.6375 7.16233 17.2908 8.16649 16.4975 8.16649H15.6667V14.8332C15.6667 15.2752 15.4911 15.6991 15.1785 16.0117C14.8659 16.3242 14.442 16.4998 14 16.4998H3.99998C3.55796 16.4998 3.13403 16.3242 2.82147 16.0117C2.50891 15.6991 2.33332 15.2752 2.33332 14.8332V8.16649H1.50248C0.708318 8.16649 0.363318 7.16149 0.989985 6.67399L7.97665 1.23983Z" fill="white"/>
</svg>
