<svg width="18" height="18" viewBox="0 0 18 18" fill="none" xmlns="http://www.w3.org/2000/svg">
<path d="M9.00033 0.666992C13.6028 0.666992 17.3337 4.39783 17.3337 9.00033C17.3337 13.6028 13.6028 17.3337 9.00033 17.3337C4.39783 17.3337 0.666992 13.6028 0.666992 9.00033C0.666992 4.39783 4.39783 0.666992 9.00033 0.666992ZM8.99199 7.33366H8.16699C7.95459 7.33389 7.7503 7.41522 7.59585 7.56103C7.4414 7.70684 7.34846 7.90612 7.33602 8.11815C7.32357 8.33019 7.39255 8.53897 7.52888 8.70185C7.6652 8.86473 7.85858 8.96941 8.06949 8.99449L8.16699 9.00033V13.1587C8.16699 13.592 8.49533 13.9503 8.91699 13.9953L9.00866 14.0003H9.41699C9.59225 14.0003 9.76305 13.9451 9.9051 13.8424C10.0472 13.7398 10.1532 13.5949 10.2082 13.4285C10.2632 13.2621 10.2644 13.0826 10.2115 12.9155C10.1586 12.7484 10.0544 12.6023 9.91366 12.4978L9.83366 12.4453V8.17533C9.83366 7.74199 9.50533 7.38366 9.08366 7.33866L8.99199 7.33366ZM9.00033 4.83366C8.77931 4.83366 8.56735 4.92146 8.41107 5.07774C8.25479 5.23402 8.16699 5.44598 8.16699 5.66699C8.16699 5.88801 8.25479 6.09997 8.41107 6.25625C8.56735 6.41253 8.77931 6.50033 9.00033 6.50033C9.22134 6.50033 9.4333 6.41253 9.58958 6.25625C9.74586 6.09997 9.83366 5.88801 9.83366 5.66699C9.83366 5.44598 9.74586 5.23402 9.58958 5.07774C9.4333 4.92146 9.22134 4.83366 9.00033 4.83366Z" fill="#D9D9E2"/>
</svg>
