<svg width="18" height="19" viewBox="0 0 18 19" fill="none" xmlns="http://www.w3.org/2000/svg">
<path fill-rule="evenodd" clip-rule="evenodd" d="M2 0.5C1.46957 0.5 0.960859 0.710714 0.585786 1.08579C0.210714 1.46086 0 1.96957 0 2.5V16.5C0 17.0304 0.210714 17.5391 0.585786 17.9142C0.960859 18.2893 1.46957 18.5 2 18.5H16C16.5304 18.5 17.0391 18.2893 17.4142 17.9142C17.7893 17.5391 18 17.0304 18 16.5V2.5C18 1.96957 17.7893 1.46086 17.4142 1.08579C17.0391 0.710714 16.5304 0.5 16 0.5H2ZM7 2.5H16V16.5H7V2.5ZM5 2.5H2V16.5H5V2.5Z" fill="#D9D9E2"/>
</svg>
