<svg width="15" height="16" viewBox="0 0 15 16" fill="none" xmlns="http://www.w3.org/2000/svg">
<path d="M3.53186 12.2652C3.68183 12.1158 3.88306 12.029 4.09468 12.0225C4.30631 12.0161 4.51246 12.0904 4.67126 12.2304C4.83007 12.3704 4.92962 12.5657 4.94969 12.7764C4.96977 12.9872 4.90887 13.1977 4.77936 13.3652L4.7102 13.4435L2.79519 15.3585C2.61364 15.5398 2.37156 15.6477 2.11537 15.6616C1.85918 15.6754 1.60689 15.5942 1.40686 15.4335L1.32186 15.3585L0.291028 14.3269C0.141571 14.1769 0.0548 13.9757 0.0483378 13.7641C0.0418757 13.5524 0.116207 13.3463 0.256235 13.1875C0.396263 13.0287 0.591488 12.9291 0.802257 12.909C1.01303 12.889 1.22354 12.9499 1.39103 13.0794L1.46936 13.1485L2.05853 13.7377L3.53186 12.2644V12.2652ZM14.1669 13.0877C14.3879 13.0877 14.5998 13.1755 14.7561 13.3318C14.9124 13.4881 15.0002 13.7 15.0002 13.921C15.0002 14.1421 14.9124 14.354 14.7561 14.5103C14.5998 14.6666 14.3879 14.7544 14.1669 14.7544H6.66686C6.44585 14.7544 6.23389 14.6666 6.07761 14.5103C5.92133 14.354 5.83353 14.1421 5.83353 13.921C5.83353 13.7 5.92133 13.4881 6.07761 13.3318C6.23389 13.1755 6.44585 13.0877 6.66686 13.0877H14.1669ZM4.7102 6.43105C4.78768 6.50844 4.84914 6.60035 4.89108 6.70151C4.93301 6.80268 4.9546 6.91112 4.9546 7.02063C4.9546 7.13014 4.93301 7.23858 4.89108 7.33975C4.84914 7.44091 4.78768 7.53282 4.7102 7.61021L2.79519 9.52521C2.69846 9.62197 2.58362 9.69872 2.45722 9.75109C2.33082 9.80346 2.19534 9.83041 2.05853 9.83041C1.92171 9.83041 1.78623 9.80346 1.65984 9.75109C1.53344 9.69872 1.41859 9.62197 1.32186 9.52521L0.291028 8.49355C0.211436 8.41667 0.147951 8.32472 0.104277 8.22305C0.0606026 8.12138 0.0376141 8.01203 0.0366526 7.90138C0.035691 7.79073 0.0567758 7.681 0.0986766 7.57859C0.140577 7.47617 0.202455 7.38313 0.280699 7.30488C0.358943 7.22664 0.451986 7.16476 0.5544 7.12286C0.656813 7.08096 0.766546 7.05988 0.877196 7.06084C0.987845 7.0618 1.0972 7.08479 1.19887 7.12846C1.30054 7.17214 1.39249 7.23562 1.46936 7.31521L2.05853 7.90438L3.53186 6.43188C3.68813 6.27565 3.90006 6.18789 4.12103 6.18789C4.342 6.18789 4.55392 6.27482 4.7102 6.43105ZM14.1669 7.25438C14.3793 7.25462 14.5836 7.33595 14.738 7.48175C14.8924 7.62756 14.9854 7.82684 14.9978 8.03888C15.0103 8.25091 14.9413 8.4597 14.805 8.62257C14.6686 8.78545 14.4753 8.89013 14.2644 8.91521L14.1669 8.92105H6.66686C6.45453 8.9206 6.25038 8.83912 6.09609 8.69325C5.94181 8.54737 5.84902 8.34811 5.83668 8.13614C5.82435 7.92417 5.89339 7.71548 6.02971 7.55269C6.16603 7.3899 6.35935 7.28529 6.57019 7.26021L6.66686 7.25438H14.1669ZM3.53186 0.598547C3.68183 0.449091 3.88306 0.36232 4.09468 0.355857C4.30631 0.349395 4.51246 0.423727 4.67126 0.563755C4.83007 0.703783 4.92962 0.899007 4.94969 1.10978C4.96977 1.32055 4.90887 1.53105 4.77936 1.69855L4.7102 1.77688L2.79519 3.69188C2.61364 3.87316 2.37156 3.98106 2.11537 3.9949C1.85918 4.00874 1.60689 3.92755 1.40686 3.76688L1.32186 3.69188L0.291028 2.66021C0.141571 2.51025 0.0548 2.30902 0.0483378 2.09739C0.0418757 1.88577 0.116207 1.67962 0.256235 1.52082C0.396263 1.36201 0.591488 1.26246 0.802257 1.24238C1.01303 1.2223 1.22354 1.2832 1.39103 1.41271L1.46936 1.48188L2.05853 2.07105L3.53186 0.598547ZM14.1669 1.42105C14.3793 1.42128 14.5836 1.50261 14.738 1.64842C14.8924 1.79423 14.9854 1.99351 14.9978 2.20554C15.0103 2.41758 14.9413 2.62636 14.805 2.78924C14.6686 2.95212 14.4753 3.05679 14.2644 3.08188L14.1669 3.08771H6.66686C6.45453 3.08727 6.25038 3.00579 6.09609 2.85992C5.94181 2.71404 5.84902 2.51477 5.83668 2.3028C5.82435 2.09083 5.89339 1.88215 6.02971 1.71936C6.16603 1.55657 6.35935 1.45196 6.57019 1.42688L6.66686 1.42105H14.1669Z" fill="#593983"/>
</svg>
