<svg width="15" height="16" viewBox="0 0 15 16" fill="none" xmlns="http://www.w3.org/2000/svg">
<path d="M7.44847 0C5.90137 0 4.41764 0.614581 3.32368 1.70854C2.22972 2.80251 1.61514 4.28624 1.61514 5.83333V8.77333C1.61526 8.90261 1.5853 9.03013 1.52764 9.14583L0.0968023 12.0067C0.0269077 12.1464 -0.00609595 12.3017 0.000926074 12.4579C0.00794809 12.614 0.0547626 12.7657 0.136923 12.8986C0.219084 13.0315 0.333863 13.1413 0.470358 13.2173C0.606854 13.2934 0.760534 13.3334 0.916802 13.3333H13.9801C14.1364 13.3334 14.2901 13.2934 14.4266 13.2173C14.5631 13.1413 14.6779 13.0315 14.76 12.8986C14.8422 12.7657 14.889 12.614 14.896 12.4579C14.903 12.3017 14.87 12.1464 14.8001 12.0067L13.3701 9.14583C13.3122 9.0302 13.2819 8.90267 13.2818 8.77333V5.83333C13.2818 4.28624 12.6672 2.80251 11.5733 1.70854C10.4793 0.614581 8.99556 0 7.44847 0ZM7.44847 15.8333C6.93129 15.8335 6.42678 15.6733 6.00443 15.3748C5.58207 15.0763 5.26264 14.6542 5.09014 14.1667H9.8068C9.63429 14.6542 9.31487 15.0763 8.89251 15.3748C8.47016 15.6733 7.96565 15.8335 7.44847 15.8333Z" fill="#593983"/>
</svg>
