<svg width="17" height="18" viewBox="0 0 17 18" fill="none" xmlns="http://www.w3.org/2000/svg">
<path fill-rule="evenodd" clip-rule="evenodd" d="M8.50002 0.666992C13.1025 0.666992 16.8334 4.39783 16.8334 9.00033C16.8334 9.54116 16.7817 10.0703 16.6834 10.5837C16.3725 12.1962 14.8 12.9095 13.4275 12.7462L13.2817 12.7253L11.8317 12.4837C11.663 12.4555 11.4899 12.4681 11.327 12.5203C11.1641 12.5724 11.016 12.6627 10.895 12.7837C10.5867 13.092 10.4392 13.5162 10.6467 13.9303C10.9992 14.6353 11.0042 15.4403 10.6925 16.0995C10.2759 16.9837 9.42502 17.3337 8.50002 17.3337C3.89752 17.3337 0.166687 13.6028 0.166687 9.00033C0.166687 4.39783 3.89752 0.666992 8.50002 0.666992ZM4.75002 8.16699C4.58587 8.16699 4.42332 8.19932 4.27167 8.26214C4.12001 8.32496 3.98221 8.41704 3.86614 8.53311C3.75006 8.64918 3.65799 8.78698 3.59517 8.93864C3.53235 9.09029 3.50002 9.25284 3.50002 9.41699C3.50002 9.58115 3.53235 9.74369 3.59517 9.89535C3.65799 10.047 3.75006 10.1848 3.86614 10.3009C3.98221 10.4169 4.12001 10.509 4.27167 10.5718C4.42332 10.6347 4.58587 10.667 4.75002 10.667C5.08154 10.667 5.39948 10.5353 5.6339 10.3009C5.86832 10.0665 6.00002 9.74851 6.00002 9.41699C6.00002 9.08547 5.86832 8.76753 5.6339 8.53311C5.39948 8.29869 5.08154 8.16699 4.75002 8.16699ZM10.5834 4.83366C10.2518 4.83366 9.93389 4.96535 9.69947 5.19978C9.46505 5.4342 9.33335 5.75214 9.33335 6.08366C9.33335 6.41518 9.46505 6.73312 9.69947 6.96754C9.93389 7.20196 10.2518 7.33366 10.5834 7.33366C10.9149 7.33366 11.2328 7.20196 11.4672 6.96754C11.7017 6.73312 11.8334 6.41518 11.8334 6.08366C11.8334 5.75214 11.7017 5.4342 11.4672 5.19978C11.2328 4.96535 10.9149 4.83366 10.5834 4.83366ZM6.41669 4.83366C6.08517 4.83366 5.76722 4.96535 5.5328 5.19978C5.29838 5.4342 5.16669 5.75214 5.16669 6.08366C5.16669 6.41518 5.29838 6.73312 5.5328 6.96754C5.76722 7.20196 6.08517 7.33366 6.41669 7.33366C6.74821 7.33366 7.06615 7.20196 7.30057 6.96754C7.53499 6.73312 7.66669 6.41518 7.66669 6.08366C7.66669 5.75214 7.53499 5.4342 7.30057 5.19978C7.06615 4.96535 6.74821 4.83366 6.41669 4.83366Z" fill="#593983"/>
</svg>
