<svg width="28" height="34" viewBox="0 0 28 34" fill="none" xmlns="http://www.w3.org/2000/svg">
<path fill-rule="evenodd" clip-rule="evenodd" d="M14 0.333008V11.1663C14 11.8294 14.2634 12.4653 14.7322 12.9341C15.201 13.4029 15.8369 13.6663 16.5 13.6663H27.3333V30.333C27.3333 31.2171 26.9821 32.0649 26.357 32.69C25.7319 33.3152 24.884 33.6663 24 33.6663H3.99996C3.1159 33.6663 2.26806 33.3152 1.64294 32.69C1.01782 32.0649 0.666626 31.2171 0.666626 30.333V3.66634C0.666626 2.78229 1.01782 1.93444 1.64294 1.30932C2.26806 0.684197 3.1159 0.333008 3.99996 0.333008H14ZM12.3516 16.7463C11.9524 19.2847 10.6249 21.5844 8.62663 23.1997C7.14829 24.393 8.49996 26.7347 10.2733 26.053C12.6714 25.1299 15.3268 25.1299 17.725 26.053C19.4983 26.7363 20.85 24.3947 19.3716 23.1997C17.3734 21.5842 16.046 19.2846 15.6466 16.7463C15.3516 14.8697 12.6466 14.868 12.3516 16.7463ZM14 20.838L15.3433 23.1613H12.66L14 20.838ZM17.3333 0.404674C17.9648 0.5386 18.5438 0.852994 19 1.30967L26.3566 8.66634C26.8133 9.12255 27.1277 9.70154 27.2616 10.333H17.3333V0.404674Z" fill="#FF664B"/>
</svg>
