<svg width="15" height="15" viewBox="0 0 15 15" fill="none" xmlns="http://www.w3.org/2000/svg">
<path d="M13.3333 12.8334C13.5457 12.8336 13.75 12.9149 13.9045 13.0607C14.0589 13.2065 14.1519 13.4058 14.1643 13.6179C14.1768 13.8299 14.1078 14.0387 13.9714 14.2016C13.8351 14.3644 13.6417 14.4691 13.4308 14.4942L13.3333 14.5H7.49999C7.28759 14.4998 7.0833 14.4185 6.92885 14.2727C6.77441 14.1268 6.68146 13.9276 6.66902 13.7155C6.65657 13.5035 6.72555 13.2947 6.86188 13.1318C6.9982 12.969 7.19158 12.8643 7.40249 12.8392L7.49999 12.8334H13.3333ZM10.9133 0.64003C11.295 0.258614 11.8097 0.0401416 12.3492 0.0305996C12.8887 0.0210577 13.4108 0.221191 13.8057 0.588871C14.2006 0.956552 14.4374 1.4631 14.4664 2.00189C14.4953 2.54067 14.3141 3.06967 13.9608 3.47753L13.8592 3.58586L4.77916 12.6667C4.69981 12.7461 4.61011 12.8145 4.51249 12.87L4.41249 12.92L1.24249 14.3617C0.569159 14.6675 -0.122508 14.0142 0.104992 13.3409L0.138325 13.2575L1.57999 10.0867C1.6262 9.98473 1.6859 9.88943 1.75749 9.80336L1.83249 9.72003L10.9133 0.64003Z" fill="#593983"/>
</svg>
