<svg width="18" height="16" viewBox="0 0 18 16" fill="none" xmlns="http://www.w3.org/2000/svg">
<path fill-rule="evenodd" clip-rule="evenodd" d="M3.16666 0.5C2.50362 0.5 1.86773 0.763392 1.39889 1.23223C0.930049 1.70107 0.666656 2.33696 0.666656 3V11.3333C0.666656 11.7754 0.842251 12.1993 1.15481 12.5118C1.46737 12.8244 1.8913 13 2.33332 13V3C2.33332 2.77899 2.42112 2.56702 2.5774 2.41074C2.73368 2.25446 2.94564 2.16667 3.16666 2.16667H14.8333C14.8333 1.72464 14.6577 1.30072 14.3452 0.988155C14.0326 0.675595 13.6087 0.5 13.1667 0.5H3.16666ZM3.16666 4.66667C3.16666 4.22464 3.34225 3.80072 3.65481 3.48816C3.96737 3.17559 4.3913 3 4.83332 3H15.6667C16.1087 3 16.5326 3.17559 16.8452 3.48816C17.1577 3.80072 17.3333 4.22464 17.3333 4.66667V14.1108C17.3333 14.5529 17.1577 14.9768 16.8452 15.2893C16.5326 15.6019 16.1087 15.7775 15.6667 15.7775H4.83332C4.3913 15.7775 3.96737 15.6019 3.65481 15.2893C3.34225 14.9768 3.16666 14.5529 3.16666 14.1108V4.66667ZM15.6667 4.66667H4.83332V11.2067L8.03999 8C8.13672 7.90324 8.25157 7.82649 8.37796 7.77412C8.50436 7.72176 8.63984 7.69481 8.77666 7.69481C8.91347 7.69481 9.04895 7.72176 9.17535 7.77412C9.30175 7.82649 9.41659 7.90324 9.51332 8L12.2142 10.7L12.9508 9.96417C13.0476 9.86741 13.1624 9.79066 13.2888 9.73829C13.4152 9.68592 13.5507 9.65897 13.6875 9.65897C13.8243 9.65897 13.9598 9.68592 14.0862 9.73829C14.2126 9.79066 14.3274 9.86741 14.4242 9.96417L15.6667 11.2067V4.66667ZM14 7.16667C14 7.49819 13.8683 7.81613 13.6339 8.05055C13.3995 8.28497 13.0815 8.41667 12.75 8.41667C12.4185 8.41667 12.1005 8.28497 11.8661 8.05055C11.6317 7.81613 11.5 7.49819 11.5 7.16667C11.5 6.83515 11.6317 6.5172 11.8661 6.28278C12.1005 6.04836 12.4185 5.91667 12.75 5.91667C13.0815 5.91667 13.3995 6.04836 13.6339 6.28278C13.8683 6.5172 14 6.83515 14 7.16667Z" fill="#593983"/>
</svg>
