<svg width="16" height="16" viewBox="0 0 16 16" fill="none" xmlns="http://www.w3.org/2000/svg">
<path d="M6.875 14C6.875 14.2984 6.99353 14.5845 7.2045 14.7955C7.41548 15.0065 7.70163 15.125 8 15.125C8.29837 15.125 8.58452 15.0065 8.7955 14.7955C9.00647 14.5845 9.125 14.2984 9.125 14V9.125H14C14.2984 9.125 14.5845 9.00647 14.7955 8.7955C15.0065 8.58452 15.125 8.29837 15.125 8C15.125 7.70163 15.0065 7.41548 14.7955 7.2045C14.5845 6.99353 14.2984 6.875 14 6.875H9.125V2C9.125 1.70163 9.00647 1.41548 8.7955 1.2045C8.58452 0.993526 8.29837 0.875 8 0.875C7.70163 0.875 7.41548 0.993526 7.2045 1.2045C6.99353 1.41548 6.875 1.70163 6.875 2V6.875H2C1.70163 6.875 1.41548 6.99353 1.2045 7.2045C0.993526 7.41548 0.875 7.70163 0.875 8C0.875 8.29837 0.993526 8.58452 1.2045 8.7955C1.41548 9.00647 1.70163 9.125 2 9.125H6.875V14Z" fill="white"/>
</svg>
