<svg width="16" height="18" viewBox="0 0 16 18" fill="none" xmlns="http://www.w3.org/2000/svg">
<path d="M0.0835193 9.06695C0.0787693 8.34862 0.803936 7.93695 1.36444 8.25445L1.43964 8.30278L3.55973 9.80612C4.32923 10.3519 3.85819 11.5919 2.97864 11.4786L2.88602 11.462L2.04448 11.2669C2.47221 12.5127 3.2427 13.5961 4.2577 14.379C5.27269 15.1619 6.48621 15.6089 7.74351 15.663C9.00081 15.7171 10.2449 15.3758 11.3172 14.6827C12.3895 13.9895 13.2414 12.9759 13.7643 11.7711C13.8542 11.575 14.0134 11.4236 14.208 11.3495C14.4025 11.2754 14.6169 11.2844 14.8052 11.3746C14.9935 11.4648 15.1408 11.629 15.2156 11.8321C15.2903 12.0351 15.2866 12.2609 15.2051 12.4611C13.6321 16.1028 9.74581 18.122 5.95294 17.0519C4.27953 16.58 2.79932 15.5435 1.73916 14.1012C0.679011 12.6589 0.0974149 10.8905 0.0835193 9.06695ZM0.798394 5.54362C2.37144 1.90195 6.25773 -0.116384 10.0506 0.952783C11.7239 1.42455 13.2041 2.46093 14.2643 3.90307C15.3245 5.34521 15.9061 7.11352 15.92 8.93695C15.9256 9.65612 15.1996 10.0686 14.6399 9.75028L14.5639 9.70195L12.4438 8.19862C11.6743 7.65278 12.1454 6.41278 13.0249 6.52612L13.1175 6.54278L13.9591 6.73778C13.5313 5.49207 12.7608 4.40868 11.7458 3.62574C10.7308 2.8428 9.51733 2.39578 8.26003 2.3417C7.00273 2.28761 5.75861 2.6289 4.68631 3.32205C3.614 4.0152 2.7621 5.0288 2.23923 6.23362C2.19772 6.33567 2.13727 6.42796 2.06141 6.50508C1.98555 6.58219 1.89582 6.64258 1.79748 6.68268C1.69915 6.72279 1.59419 6.74182 1.48878 6.73864C1.38336 6.73546 1.27961 6.71014 1.18362 6.66417C1.08763 6.6182 1.00133 6.55251 0.929789 6.47094C0.85825 6.38938 0.802913 6.2936 0.767027 6.18921C0.731142 6.08483 0.715431 5.97395 0.720818 5.86308C0.726204 5.75222 0.752579 5.6436 0.798394 5.54362Z" fill="white"/>
</svg>
