<svg width="17" height="17" viewBox="0 0 17 17" fill="none" xmlns="http://www.w3.org/2000/svg">
<path d="M7.25003 0.666992C8.58 0.666903 9.88313 1.04125 11.0103 1.74718C12.1374 2.45312 13.0431 3.46213 13.6235 4.65874C14.204 5.85534 14.4359 7.1912 14.2926 8.51343C14.1493 9.83566 13.6367 11.0908 12.8134 12.1353L15.8567 15.1787C16.0085 15.3358 16.0925 15.5463 16.0906 15.7648C16.0887 15.9833 16.0011 16.1923 15.8465 16.3468C15.692 16.5013 15.483 16.589 15.2645 16.5909C15.046 16.5928 14.8355 16.5088 14.6784 16.357L11.635 13.3137C10.7479 14.0128 9.70644 14.4896 8.59754 14.7044C7.48865 14.9192 6.34446 14.8657 5.26046 14.5483C4.17645 14.231 3.18405 13.659 2.36606 12.8801C1.54807 12.1012 0.928201 11.138 0.558177 10.0708C0.188153 9.00363 0.0787004 7.86344 0.238952 6.74536C0.399203 5.62728 0.824511 4.56373 1.47939 3.64345C2.13427 2.72317 2.99974 1.97285 4.00358 1.45507C5.00742 0.937296 6.12052 0.667088 7.25003 0.666992ZM7.25003 2.33366C5.81344 2.33366 4.43569 2.90434 3.41987 3.92016C2.40404 4.93599 1.83336 6.31374 1.83336 7.75033C1.83336 9.18692 2.40404 10.5647 3.41987 11.5805C4.43569 12.5963 5.81344 13.167 7.25003 13.167C8.68662 13.167 10.0644 12.5963 11.0802 11.5805C12.096 10.5647 12.6667 9.18692 12.6667 7.75033C12.6667 6.31374 12.096 4.93599 11.0802 3.92016C10.0644 2.90434 8.68662 2.33366 7.25003 2.33366ZM7.25003 3.16699C8.4656 3.16699 9.63139 3.64988 10.4909 4.50942C11.3505 5.36896 11.8334 6.53475 11.8334 7.75033C11.8334 8.9659 11.3505 10.1317 10.4909 10.9912C9.63139 11.8508 8.4656 12.3337 7.25003 12.3337C6.03445 12.3337 4.86866 11.8508 4.00912 10.9912C3.14958 10.1317 2.6667 8.9659 2.6667 7.75033C2.6667 6.53475 3.14958 5.36896 4.00912 4.50942C4.86866 3.64988 6.03445 3.16699 7.25003 3.16699Z" fill="#593983"/>
</svg>
