<svg width="20" height="20" viewBox="0 0 20 20" fill="none" xmlns="http://www.w3.org/2000/svg">
<path fill-rule="evenodd" clip-rule="evenodd" d="M7.96514 0.808915C7.76595 0.663247 7.53411 0.568582 7.28989 0.533195C7.04566 0.497808 6.79649 0.522775 6.56414 0.605915C5.47775 1.0039 4.46875 1.58757 3.58214 2.33092C3.3943 2.4904 3.24833 2.69344 3.157 2.92231C3.06566 3.15117 3.03172 3.39892 3.05814 3.64392C3.13314 4.39692 3.00014 5.12392 2.63814 5.74992C2.27714 6.37691 1.71314 6.85592 1.02314 7.16691C0.79749 7.26687 0.599754 7.42057 0.447222 7.61459C0.29469 7.80861 0.192005 8.03704 0.148143 8.27991C-0.0493811 9.41808 -0.0493811 10.5818 0.148143 11.7199C0.241143 12.2569 0.608143 12.6459 1.02314 12.8339C1.71314 13.1439 2.27714 13.6239 2.63914 14.2499C3.00014 14.8769 3.13314 15.6029 3.05814 16.3559C3.01314 16.8079 3.16514 17.3199 3.58214 17.6689C4.46874 18.4123 5.47774 18.996 6.56414 19.3939C6.79634 19.477 7.04534 19.5019 7.28939 19.4665C7.53343 19.4311 7.7651 19.3365 7.96414 19.1909C8.57914 18.7489 9.27614 18.4999 10.0001 18.4999C10.7241 18.4999 11.4201 18.7489 12.0351 19.1909C12.4051 19.4569 12.9251 19.5809 13.4361 19.3939C14.5225 18.9959 15.5315 18.4123 16.4181 17.6689C16.8351 17.3199 16.9881 16.8089 16.9421 16.3559C16.8671 15.6029 16.9991 14.8759 17.3621 14.2499C17.7231 13.6229 18.2871 13.1449 18.9771 12.8339C19.3911 12.6469 19.7591 12.2569 19.8521 11.7199C20.0496 10.5817 20.0496 9.41808 19.8521 8.27991C19.8083 8.03704 19.7056 7.80861 19.5531 7.61459C19.4005 7.42057 19.2028 7.26687 18.9771 7.16691C18.2871 6.85592 17.7231 6.37691 17.3611 5.74992C16.9991 5.12392 16.8671 4.39692 16.9421 3.64392C16.9685 3.39892 16.9345 3.15121 16.8432 2.92235C16.7518 2.6935 16.6059 2.49046 16.4181 2.33092C15.5315 1.58757 14.5225 1.0039 13.4361 0.605915C13.2039 0.522949 12.955 0.498072 12.7109 0.533457C12.4669 0.568842 12.2352 0.663412 12.0361 0.808915C11.4201 1.24992 10.7231 1.49992 10.0001 1.49992C9.27714 1.49992 8.58014 1.25092 7.96514 0.808915ZM7.00014 9.99992C7.00014 9.20427 7.31621 8.4412 7.87882 7.87859C8.44143 7.31599 9.20449 6.99992 10.0001 6.99992C10.7958 6.99992 11.5589 7.31599 12.1215 7.87859C12.6841 8.4412 13.0001 9.20427 13.0001 9.99992C13.0001 10.7956 12.6841 11.5586 12.1215 12.1212C11.5589 12.6838 10.7958 12.9999 10.0001 12.9999C9.20449 12.9999 8.44143 12.6838 7.87882 12.1212C7.31621 11.5586 7.00014 10.7956 7.00014 9.99992Z" fill="#593983"/>
</svg>
