<svg width="20" height="18" viewBox="0 0 20 18" fill="none" xmlns="http://www.w3.org/2000/svg">
<path d="M8.114 1.49118L7.911 4.63518L7.891 5.05218L7.801 5.06218C3.363 5.58218 0 9.36618 0 14.0002C0 14.4572 0.034 14.9102 0.102 15.3572C0.381 17.2022 0.591 17.3812 1.874 15.8552C2.19197 15.484 2.5398 15.1395 2.914 14.8252C4.25692 13.7151 5.92704 13.0764 7.668 13.0072L7.894 13.0022L7.955 14.2312L8.121 16.5762C8.201 17.3802 9.047 17.9292 9.825 17.4902C10.177 17.2922 10.52 17.0802 10.865 16.8702C12.652 15.7522 14.325 14.4672 15.955 13.1322C16.915 12.3322 17.755 11.5742 18.471 10.8842C18.801 10.5612 19.131 10.2382 19.45 9.90418C19.912 9.42018 19.958 8.61918 19.474 8.11218C18.36 6.94718 16.786 5.48818 14.827 3.94018C13.239 2.69818 11.597 1.53818 9.857 0.519177C9.02 0.0421765 8.19 0.696177 8.114 1.49118Z" fill="#9494A9"/>
</svg>
