<svg width="18" height="16" viewBox="0 0 18 16" fill="none" xmlns="http://www.w3.org/2000/svg">
<path d="M7.42866 1.74201C7.49199 1.07951 8.18366 0.533681 8.88116 0.932014C10.3312 1.78118 11.6995 2.74868 13.0228 3.78285C14.6562 5.07285 15.967 6.28868 16.8953 7.25951C17.2978 7.68201 17.2603 8.34951 16.8753 8.75285C15.956 9.70373 14.9836 10.6018 13.9628 11.4428C12.3478 12.7653 10.6753 14.047 8.85449 15.0745C8.23699 15.4228 7.56783 15.0245 7.44866 14.407L7.43449 14.3128L7.24533 11.3345C5.73199 11.3662 4.26699 11.8862 3.09533 12.8537L2.87449 13.0387L2.76783 13.1253L2.56199 13.2853C2.52866 13.3103 2.49533 13.3353 2.46199 13.3587L2.27033 13.492C2.2108 13.5312 2.15022 13.5687 2.08866 13.6045L1.91699 13.697C1.11199 14.0945 0.666992 13.7428 0.666992 12.1662C0.666992 8.49618 3.37116 5.23035 7.02699 4.73535L7.24283 4.70951L7.42866 1.74201ZM9.01949 2.97035L8.85949 5.86368C8.85409 5.96259 8.81363 6.05633 8.74537 6.12811C8.6771 6.19989 8.5855 6.245 8.48699 6.25535L7.35283 6.37368C4.79866 6.67868 2.77199 8.67535 2.39616 11.2853C3.64536 10.3643 5.12795 9.81225 6.67533 9.69201L7.00616 9.67285L8.42616 9.64285C8.53417 9.64052 8.63887 9.68023 8.71816 9.75362C8.79745 9.827 8.84513 9.92831 8.85116 10.0362L9.01533 13.0328C10.3512 12.182 11.6245 11.2028 12.902 10.1578C13.7271 9.47241 14.5214 8.75088 15.2828 7.99535L15.0678 7.78201L14.6045 7.33785C13.7665 6.55277 12.8951 5.80402 11.9928 5.09368C11.0359 4.33922 10.0437 3.63064 9.01949 2.97035Z" fill="#593983"/>
</svg>
