<svg width="12" height="10" viewBox="0 0 12 10" fill="none" xmlns="http://www.w3.org/2000/svg">
<path d="M5.45999 0.434341C5.51502 0.339921 5.59383 0.261578 5.68859 0.207128C5.78334 0.152678 5.89071 0.124023 5.99999 0.124023C6.10927 0.124023 6.21665 0.152678 6.3114 0.207128C6.40615 0.261578 6.48497 0.339921 6.53999 0.434341L7.93749 2.83334L10.6515 3.42134C10.7582 3.44454 10.8571 3.49532 10.9381 3.56861C11.0191 3.6419 11.0795 3.73515 11.1132 3.83905C11.147 3.94296 11.1529 4.05389 11.1304 4.1608C11.1079 4.26771 11.0578 4.36685 10.985 4.44834L9.13499 6.51884L9.41499 9.28134C9.42604 9.39012 9.40835 9.49989 9.36371 9.5997C9.31906 9.6995 9.24901 9.78585 9.16056 9.85012C9.0721 9.91439 8.96833 9.95432 8.85962 9.96594C8.7509 9.97756 8.64103 9.96046 8.54099 9.91634L5.99999 8.79634L3.45899 9.91634C3.35895 9.96046 3.24909 9.97756 3.14037 9.96594C3.03165 9.95432 2.92788 9.91439 2.83943 9.85012C2.75097 9.78585 2.68092 9.6995 2.63628 9.5997C2.59163 9.49989 2.57395 9.39012 2.58499 9.28134L2.86499 6.51884L1.01499 4.44884C0.942106 4.36735 0.89187 4.26817 0.869299 4.1612C0.846729 4.05423 0.852613 3.94321 0.886364 3.83922C0.920116 3.73523 0.980554 3.64192 1.06165 3.56859C1.14274 3.49526 1.24164 3.44449 1.34849 3.42134L4.06249 2.83334L5.45999 0.434341Z" fill="#FFD650"/>
</svg>
