<svg width="22" height="20" viewBox="0 0 22 20" fill="none" xmlns="http://www.w3.org/2000/svg">
<path fill-rule="evenodd" clip-rule="evenodd" d="M9.92023 0.868682C10.0303 0.679842 10.1879 0.523156 10.3774 0.414256C10.5669 0.305355 10.7817 0.248047 11.0002 0.248047C11.2188 0.248047 11.4335 0.305355 11.623 0.414256C11.8125 0.523156 11.9702 0.679842 12.0802 0.868682L14.8752 5.66668L20.3032 6.84268C20.5167 6.88908 20.7144 6.99063 20.8764 7.13721C21.0384 7.2838 21.1592 7.47029 21.2267 7.67811C21.2942 7.88592 21.306 8.10779 21.261 8.3216C21.216 8.53541 21.1157 8.7337 20.9702 8.89668L17.2702 13.0377L17.8302 18.5627C17.8523 18.7802 17.817 18.9998 17.7277 19.1994C17.6384 19.399 17.4983 19.5717 17.3214 19.7002C17.1444 19.8288 16.9369 19.9086 16.7195 19.9319C16.502 19.9551 16.2823 19.9209 16.0822 19.8327L11.0002 17.5927L5.91823 19.8327C5.71815 19.9209 5.49842 19.9551 5.28098 19.9319C5.06355 19.9086 4.85601 19.8288 4.6791 19.7002C4.50219 19.5717 4.36209 19.399 4.2728 19.1994C4.1835 18.9998 4.14814 18.7802 4.17023 18.5627L4.73023 13.0377L1.03023 8.89768C0.884457 8.73471 0.783985 8.53635 0.738843 8.3224C0.693701 8.10846 0.70547 7.88641 0.772973 7.67844C0.840476 7.47046 0.961353 7.28383 1.12354 7.13718C1.28572 6.99053 1.48353 6.88898 1.69723 6.84268L7.12523 5.66668L9.92023 0.868682ZM11.0002 2.98768L8.68723 6.95968C8.59977 7.1096 8.48205 7.23967 8.34156 7.34159C8.20107 7.44352 8.04089 7.51506 7.87123 7.55168L3.37923 8.52468L6.44123 11.9517C6.67523 12.2137 6.78823 12.5617 6.75323 12.9107L6.29023 17.4837L10.4962 15.6297C10.655 15.5597 10.8267 15.5236 11.0002 15.5236C11.1738 15.5236 11.3454 15.5597 11.5042 15.6297L15.7102 17.4837L15.2472 12.9107C15.2296 12.738 15.2482 12.5635 15.3018 12.3984C15.3553 12.2333 15.4426 12.0812 15.5582 11.9517L18.6212 8.52468L14.1292 7.55168C13.9596 7.51506 13.7994 7.44352 13.6589 7.34159C13.5184 7.23967 13.4007 7.1096 13.3132 6.95968L11.0002 2.98768Z" fill="#D9D9E2"/>
</svg>
