<svg width="18" height="18" viewBox="0 0 18 18" fill="none" xmlns="http://www.w3.org/2000/svg">
<path d="M8.10035 1.39024C8.19206 1.23288 8.32342 1.1023 8.48134 1.01155C8.63926 0.920804 8.81822 0.873047 9.00035 0.873047C9.18249 0.873047 9.36145 0.920804 9.51937 1.01155C9.67728 1.1023 9.80865 1.23288 9.90035 1.39024L12.2295 5.38858L16.7529 6.36858C16.9308 6.40724 17.0955 6.49187 17.2305 6.61402C17.3655 6.73617 17.4662 6.89158 17.5224 7.06476C17.5786 7.23794 17.5885 7.42283 17.551 7.60101C17.5135 7.77919 17.43 7.94442 17.3087 8.08024L14.2254 11.5311L14.692 16.1352C14.7104 16.3165 14.681 16.4995 14.6065 16.6658C14.5321 16.8322 14.4154 16.9761 14.268 17.0832C14.1205 17.1903 13.9476 17.2569 13.7664 17.2762C13.5852 17.2956 13.4021 17.2671 13.2354 17.1936L9.00035 15.3269L4.76535 17.1936C4.59862 17.2671 4.41551 17.2956 4.23432 17.2762C4.05312 17.2569 3.88017 17.1903 3.73275 17.0832C3.58532 16.9761 3.46857 16.8322 3.39416 16.6658C3.31975 16.4995 3.29028 16.3165 3.30869 16.1352L3.77535 11.5311L0.69202 8.08108C0.570544 7.94526 0.486817 7.77996 0.449199 7.60168C0.411581 7.42339 0.421387 7.23835 0.47764 7.06504C0.533893 6.89173 0.634623 6.7362 0.769776 6.61399C0.904928 6.49178 1.06977 6.40716 1.24785 6.36858L5.77119 5.38858L8.10035 1.39024Z" fill="#D9D9E2"/>
</svg>
