<svg width="17" height="18" viewBox="0 0 17 18" fill="none" xmlns="http://www.w3.org/2000/svg">
<path d="M8.49998 0.666992C9.20931 0.666992 9.89648 0.765326 10.5504 0.949492L8.86731 2.72033C8.73962 2.85527 8.62701 3.00513 8.53165 3.16699H8.49998C7.40394 3.16699 6.33252 3.50911 5.42119 4.15009C4.50987 4.79106 3.79958 5.7021 3.38015 6.76801C2.96071 7.83391 2.85097 9.0068 3.06479 10.1384C3.27862 11.2699 3.80641 12.3093 4.58143 13.1251C5.35645 13.9409 6.34388 14.4965 7.41885 14.7216C8.49383 14.9467 9.60808 14.8311 10.6207 14.3896C11.6333 13.9481 12.4988 13.2004 13.1077 12.2412C13.7166 11.2819 14.0416 10.1541 14.0416 9.00033V8.96699C14.1936 8.86699 14.3361 8.74949 14.4652 8.61283L16.1483 6.84199C16.3232 7.53033 16.4166 8.25366 16.4166 9.00033C16.4166 13.6028 12.8724 17.3337 8.49998 17.3337C4.1276 17.3337 0.583313 13.6028 0.583313 9.00033C0.583313 4.39783 4.1276 0.666992 8.49998 0.666992ZM8.17223 4.84783C8.17223 5.55699 8.13898 6.27616 8.1754 6.98449L7.7479 7.43449C7.60084 7.58929 7.48419 7.77306 7.4046 7.97531C7.32502 8.17756 7.28405 8.39433 7.28405 8.61324C7.28405 8.83216 7.32502 9.04893 7.4046 9.25118C7.48419 9.45343 7.60084 9.6372 7.7479 9.79199C7.89495 9.94679 8.06953 10.0696 8.26167 10.1534C8.45381 10.2371 8.65974 10.2802 8.86771 10.2802C9.07568 10.2802 9.28161 10.2371 9.47375 10.1534C9.66588 10.0696 9.84046 9.94679 9.98752 9.79199L10.415 9.34199C11.0879 9.38033 11.7704 9.34533 12.4449 9.34533C12.3823 10.1373 12.1059 10.8939 11.6483 11.5259C11.1907 12.158 10.5709 12.639 9.86201 12.9125C9.15316 13.1859 8.3848 13.2402 7.64757 13.069C6.91034 12.8979 6.23499 12.5084 5.70116 11.9465C5.16733 11.3845 4.7973 10.6736 4.63469 9.8976C4.47209 9.12156 4.52371 8.31277 4.78345 7.56661C5.0432 6.82044 5.50024 6.16802 6.10067 5.6863C6.7011 5.20458 7.41988 4.91365 8.17223 4.84783ZM13.649 0.772826C13.7935 0.835891 13.917 0.942606 14.0039 1.0795C14.0909 1.21639 14.1373 1.37733 14.1374 1.54199V3.06699H15.5854C15.7419 3.06703 15.895 3.11592 16.0251 3.20749C16.1553 3.29906 16.2567 3.4292 16.3166 3.58145C16.3765 3.7337 16.3922 3.90122 16.3617 4.06285C16.3312 4.22448 16.2558 4.37295 16.1451 4.48949L13.345 7.43366C13.1965 7.58995 12.9952 7.67778 12.7853 7.67783H10.875L9.42781 9.20199C9.27926 9.35836 9.07779 9.44621 8.86771 9.44621C8.65763 9.44621 8.45615 9.35836 8.3076 9.20199C8.15906 9.04562 8.0756 8.83355 8.0756 8.61241C8.0756 8.39127 8.15906 8.17919 8.3076 8.02283L9.75556 6.50033V4.48866C9.75548 4.37909 9.77593 4.27058 9.81573 4.16935C9.85553 4.06811 9.91391 3.97612 9.98752 3.89866L12.7861 0.952825C12.8968 0.836215 13.0379 0.756791 13.1915 0.724602C13.3451 0.692413 13.5043 0.708905 13.649 0.771992" fill="white"/>
</svg>
