<svg width="18" height="18" viewBox="0 0 18 18" fill="none" xmlns="http://www.w3.org/2000/svg">
<path d="M8.99984 0.666992C13.6023 0.666992 17.3332 4.39783 17.3332 9.00033C17.3332 13.6028 13.6023 17.3337 8.99984 17.3337C4.39734 17.3337 0.666504 13.6028 0.666504 9.00033C0.666504 4.39783 4.39734 0.666992 8.99984 0.666992ZM8.99984 2.33366C7.23173 2.33366 5.53604 3.03604 4.28579 4.28628C3.03555 5.53652 2.33317 7.23222 2.33317 9.00033C2.33317 10.7684 3.03555 12.4641 4.28579 13.7144C5.53604 14.9646 7.23173 15.667 8.99984 15.667C10.7679 15.667 12.4636 14.9646 13.7139 13.7144C14.9641 12.4641 15.6665 10.7684 15.6665 9.00033C15.6665 7.23222 14.9641 5.53652 13.7139 4.28628C12.4636 3.03604 10.7679 2.33366 8.99984 2.33366ZM8.99984 4.00033C9.20395 4.00035 9.40095 4.07529 9.55348 4.21092C9.70601 4.34655 9.80346 4.53345 9.82734 4.73616L9.83317 4.83366V8.65533L12.089 10.9112C12.2385 11.0611 12.3252 11.2624 12.3317 11.474C12.3382 11.6856 12.2638 11.8918 12.1238 12.0506C11.9838 12.2094 11.7885 12.3089 11.5778 12.329C11.367 12.3491 11.1565 12.2882 10.989 12.1587L10.9107 12.0895L8.41067 9.58949C8.28115 9.45986 8.19797 9.29116 8.174 9.10949L8.1665 9.00033V4.83366C8.1665 4.61265 8.2543 4.40068 8.41058 4.2444C8.56686 4.08812 8.77882 4.00033 8.99984 4.00033Z" fill="#9494A9"/>
</svg>
