<svg width="16" height="18" viewBox="0 0 16 18" fill="none" xmlns="http://www.w3.org/2000/svg">
<path fill-rule="evenodd" clip-rule="evenodd" d="M8 9.83366C9.99667 9.83366 11.8125 10.412 13.1483 11.227C13.815 11.6337 14.385 12.1137 14.7967 12.6353C15.2017 13.1478 15.5 13.7612 15.5 14.417C15.5 15.1212 15.1575 15.6762 14.6642 16.072C14.1975 16.447 13.5817 16.6953 12.9275 16.8687C11.6125 17.2162 9.8575 17.3337 8 17.3337C6.1425 17.3337 4.3875 17.217 3.0725 16.8687C2.41833 16.6953 1.8025 16.447 1.33583 16.072C0.841666 15.6753 0.5 15.1212 0.5 14.417C0.5 13.7612 0.798333 13.1478 1.20333 12.6345C1.615 12.1137 2.18417 11.6345 2.85167 11.2262C4.1875 10.4128 6.00417 9.83366 8 9.83366ZM8 11.5003C6.31417 11.5003 4.7975 11.992 3.72 12.6495C3.18083 12.9778 2.77417 13.3345 2.51167 13.6678C2.24167 14.0095 2.16667 14.2678 2.16667 14.417C2.16667 14.5187 2.1975 14.6262 2.37917 14.772C2.58667 14.9387 2.9475 15.1112 3.49917 15.257C4.5975 15.5487 6.17583 15.667 8 15.667C9.825 15.667 11.4025 15.5478 12.5 15.257C13.0525 15.1112 13.4133 14.9387 13.6208 14.772C13.8025 14.6262 13.8333 14.5187 13.8333 14.417C13.8333 14.267 13.7583 14.0095 13.4892 13.6678C13.2258 13.3345 12.8192 12.9778 12.28 12.6495C11.2025 11.9912 9.68583 11.5003 8 11.5003ZM8 0.666992C9.10507 0.666992 10.1649 1.10598 10.9463 1.88738C11.7277 2.66878 12.1667 3.72859 12.1667 4.83366C12.1667 5.93873 11.7277 6.99854 10.9463 7.77994C10.1649 8.56134 9.10507 9.00033 8 9.00033C6.89493 9.00033 5.83512 8.56134 5.05372 7.77994C4.27232 6.99854 3.83333 5.93873 3.83333 4.83366C3.83333 3.72859 4.27232 2.66878 5.05372 1.88738C5.83512 1.10598 6.89493 0.666992 8 0.666992ZM8 2.33366C7.6717 2.33366 7.34661 2.39832 7.04329 2.52396C6.73998 2.6496 6.46438 2.83375 6.23223 3.06589C6.00009 3.29804 5.81594 3.57364 5.6903 3.87695C5.56466 4.18026 5.5 4.50535 5.5 4.83366C5.5 5.16196 5.56466 5.48705 5.6903 5.79037C5.81594 6.09368 6.00009 6.36928 6.23223 6.60143C6.46438 6.83357 6.73998 7.01772 7.04329 7.14336C7.34661 7.26899 7.6717 7.33366 8 7.33366C8.66304 7.33366 9.29893 7.07027 9.76777 6.60143C10.2366 6.13259 10.5 5.4967 10.5 4.83366C10.5 4.17062 10.2366 3.53473 9.76777 3.06589C9.29893 2.59705 8.66304 2.33366 8 2.33366Z" fill="#593983"/>
</svg>
