<svg width="19" height="16" viewBox="0 0 19 16" fill="none" xmlns="http://www.w3.org/2000/svg">
<path fill-rule="evenodd" clip-rule="evenodd" d="M3.16669 4.25C3.16669 3.75754 3.26368 3.26991 3.45214 2.81494C3.64059 2.35997 3.91682 1.94657 4.26504 1.59835C4.61326 1.25013 5.02665 0.973907 5.48162 0.785452C5.93659 0.596996 6.42423 0.5 6.91669 0.5C7.40914 0.5 7.89678 0.596996 8.35175 0.785452C8.80672 0.973907 9.22012 1.25013 9.56834 1.59835C9.91656 1.94657 10.1928 2.35997 10.3812 2.81494C10.5697 3.26991 10.6667 3.75754 10.6667 4.25C10.6667 5.24456 10.2716 6.19839 9.56834 6.90165C8.86508 7.60491 7.91125 8 6.91669 8C5.92212 8 4.9683 7.60491 4.26504 6.90165C3.56177 6.19839 3.16669 5.24456 3.16669 4.25ZM6.91669 2.16667C6.36415 2.16667 5.83425 2.38616 5.44355 2.77686C5.05285 3.16756 4.83335 3.69747 4.83335 4.25C4.83335 4.80253 5.05285 5.33244 5.44355 5.72314C5.83425 6.11384 6.36415 6.33333 6.91669 6.33333C7.46922 6.33333 7.99913 6.11384 8.38983 5.72314C8.78053 5.33244 9.00002 4.80253 9.00002 4.25C9.00002 3.69747 8.78053 3.16756 8.38983 2.77686C7.99913 2.38616 7.46922 2.16667 6.91669 2.16667ZM6.91669 8.83333C8.57752 8.83333 10.0875 9.34 11.1975 10.055C11.7534 10.4133 12.2292 10.8358 12.575 11.2967C12.9142 11.7508 13.1667 12.2967 13.1667 12.8808C13.1667 13.51 12.875 14.0142 12.4467 14.3783C12.0425 14.72 11.5159 14.9417 10.9717 15.0942C9.87752 15.4 8.43002 15.5 6.91669 15.5C5.40335 15.5 3.95585 15.4 2.86252 15.0942C2.31752 14.9417 1.79085 14.72 1.38752 14.3783C0.95752 14.015 0.666687 13.51 0.666687 12.8808C0.666687 12.2958 0.919187 11.7508 1.25835 11.2975C1.60419 10.8358 2.08002 10.4125 2.63585 10.0558C3.74585 9.33917 5.25585 8.83333 6.91669 8.83333ZM6.91669 10.5C5.58585 10.5 4.38752 10.91 3.53752 11.4567C3.11252 11.73 2.79585 12.025 2.59252 12.2958C2.38419 12.5742 2.33335 12.7758 2.33335 12.8808C2.33335 12.9425 2.34585 13.0058 2.46419 13.1058C2.60835 13.2292 2.87585 13.3675 3.31085 13.4892C4.17752 13.7308 5.43835 13.8333 6.91669 13.8333C8.39502 13.8333 9.65585 13.7308 10.5225 13.4892C10.9575 13.3675 11.225 13.2292 11.3692 13.1058C11.4875 13.0058 11.5 12.9425 11.5 12.8808C11.5 12.7758 11.4492 12.5742 11.2409 12.2958C11.0375 12.025 10.7209 11.73 10.2959 11.4567C9.44585 10.91 8.24752 10.5 6.91669 10.5ZM14 8.83333C15.1 8.83333 16.0984 9.19667 16.8334 9.70917C17.5184 10.1867 18.1667 10.94 18.1667 11.8092C18.1667 12.2983 17.9559 12.7033 17.635 12.9975C17.3375 13.2708 16.9609 13.4375 16.5984 13.5475C15.8734 13.7667 14.94 13.8333 14 13.8333H13.8309C13.9392 13.5433 14 13.225 14 12.8808C14 12.6942 13.9817 12.5142 13.95 12.3392L13.9109 12.1667H14C14.9009 12.1667 15.6334 12.0983 16.1159 11.9525C16.3342 11.8858 16.4467 11.8192 16.495 11.7808C16.4709 11.6825 16.3409 11.3975 15.88 11.0767C15.4782 10.8036 15.0217 10.6214 14.5423 10.5428C14.0629 10.4642 13.5721 10.4911 13.1042 10.6217C12.7008 10.1426 12.2277 9.72689 11.7009 9.38833C12.4125 9.02406 13.2005 8.83385 14 8.83333ZM11.5 5.5C11.5 4.83696 11.7634 4.20107 12.2323 3.73223C12.7011 3.26339 13.337 3 14 3C14.6631 3 15.2989 3.26339 15.7678 3.73223C16.2366 4.20107 16.5 4.83696 16.5 5.5C16.5 6.16304 16.2366 6.79893 15.7678 7.26777C15.2989 7.73661 14.6631 8 14 8C13.337 8 12.7011 7.73661 12.2323 7.26777C11.7634 6.79893 11.5 6.16304 11.5 5.5ZM14 4.66667C13.779 4.66667 13.567 4.75446 13.4108 4.91074C13.2545 5.06702 13.1667 5.27899 13.1667 5.5C13.1667 5.72101 13.2545 5.93297 13.4108 6.08926C13.567 6.24554 13.779 6.33333 14 6.33333C14.221 6.33333 14.433 6.24554 14.5893 6.08926C14.7456 5.93297 14.8334 5.72101 14.8334 5.5C14.8334 5.27899 14.7456 5.06702 14.5893 4.91074C14.433 4.75446 14.221 4.66667 14 4.66667Z" fill="#593983"/>
</svg>
