<svg width="18" height="14" viewBox="0 0 18 14" fill="none" xmlns="http://www.w3.org/2000/svg">
<path d="M17.7175 0V0.387692C17.472 0.439384 17.2006 0.588 16.9034 0.833538C16.6062 1.06615 16.3671 1.47969 16.1862 2.07415L12.5225 13.8212C12.4966 13.8212 12.4708 13.8212 12.4449 13.8212C12.4191 13.8212 12.3932 13.8212 12.3674 13.8212C12.3415 13.8212 12.3157 13.8212 12.2898 13.8212C12.264 13.8212 12.2382 13.8212 12.2123 13.8212L8.10277 1.62831C7.93477 1.12431 7.74739 0.794769 7.54062 0.639692C7.33385 0.484615 7.14 0.400615 6.95908 0.387692V0C7.19169 0.0129229 7.48246 0.0258458 7.83139 0.0387687C8.18031 0.0516916 8.51631 0.0581531 8.83939 0.0581531C9.34339 0.0581531 9.81508 0.0516916 10.2545 0.0387687C10.6938 0.0258458 11.0492 0.0129229 11.3206 0V0.387692C10.9329 0.400615 10.6228 0.439384 10.3902 0.503999C10.1705 0.568615 10.0412 0.710769 10.0025 0.930461C9.97662 1.15015 10.0412 1.512 10.1963 2.016L13.0846 10.9523L12.8132 11.1849L15.372 3.14031C15.6046 2.42954 15.708 1.88031 15.6822 1.49261C15.6692 1.092 15.5271 0.814153 15.2557 0.659077C14.9843 0.491076 14.5772 0.400615 14.0345 0.387692V0C14.4092 0.0129229 14.7905 0.0258458 15.1782 0.0387687C15.5658 0.0516916 15.9277 0.0581531 16.2637 0.0581531C16.5997 0.0581531 16.8775 0.0516916 17.0972 0.0387687C17.3169 0.0258458 17.5237 0.0129229 17.7175 0ZM4.16769 0V0.387692C3.83169 0.413538 3.58615 0.478153 3.43108 0.581538C3.28892 0.684923 3.21785 0.852923 3.21785 1.08554C3.23077 1.30523 3.30185 1.61538 3.43108 2.016L6.43569 11.1849L5.95108 11.6695L8.66492 3.00462L8.95569 3.46985L5.75723 13.8212C5.73139 13.8212 5.70554 13.8212 5.67969 13.8212C5.65385 13.8212 5.628 13.8212 5.60215 13.8212C5.57631 13.8212 5.55046 13.8212 5.52462 13.8212C5.49877 13.8212 5.47292 13.8212 5.44708 13.8212L1.33754 1.62831C1.16954 1.12431 0.956308 0.794769 0.697846 0.639692C0.439385 0.484615 0.206769 0.400615 0 0.387692V0C0.258462 0.0129229 0.575077 0.0258458 0.949846 0.0387687C1.33754 0.0516916 1.71231 0.0581531 2.07415 0.0581531C2.50062 0.0581531 2.89477 0.0516916 3.25662 0.0387687C3.63139 0.0258458 3.93508 0.0129229 4.16769 0Z" fill="#1E112E"/>
</svg>
