<svg width="18" height="18" viewBox="0 0 18 18" fill="none" xmlns="http://www.w3.org/2000/svg">
<path fill-rule="evenodd" clip-rule="evenodd" d="M16 2.98853V3.99953C16.5304 3.99953 17.0391 4.21024 17.4142 4.58531C17.7893 4.96039 18 5.46909 18 5.99953V15.9995C18 16.53 17.7893 17.0387 17.4142 17.4137C17.0391 17.7888 16.5304 17.9995 16 17.9995H2C1.46957 17.9995 0.960859 17.7888 0.585786 17.4137C0.210714 17.0387 0 16.53 0 15.9995V5.99953C0 4.95453 0.835 4.00653 1.813 3.72753L12.813 0.584528C13.1851 0.478183 13.5768 0.459672 13.9573 0.530454C14.3377 0.601235 14.6966 0.759376 15.0055 0.992422C15.3145 1.22547 15.5651 1.52706 15.7377 1.87344C15.9102 2.21982 16 2.60154 16 2.98853ZM12.5 9.49953C12.1022 9.49953 11.7206 9.65756 11.4393 9.93887C11.158 10.2202 11 10.6017 11 10.9995C11 11.3974 11.158 11.7789 11.4393 12.0602C11.7206 12.3415 12.1022 12.4995 12.5 12.4995C12.8978 12.4995 13.2794 12.3415 13.5607 12.0602C13.842 11.7789 14 11.3974 14 10.9995C14 10.6017 13.842 10.2202 13.5607 9.93887C13.2794 9.65756 12.8978 9.49953 12.5 9.49953ZM14 2.98853C14.0001 2.91794 13.9852 2.84814 13.9563 2.78372C13.9274 2.71931 13.8853 2.66173 13.8326 2.61478C13.7798 2.56783 13.7178 2.53258 13.6505 2.51133C13.5832 2.49009 13.5121 2.48334 13.442 2.49153L13.362 2.50753L8.14 3.99953H14V2.98853Z" fill="#593983"/>
</svg>
