<svg width="20" height="12" viewBox="0 0 20 12" fill="none" xmlns="http://www.w3.org/2000/svg">
<path d="M1.06668 7.4H2.13333C2.72244 7.4 3.20001 7.91487 3.20001 8.55V10.85C3.20001 11.4851 2.72244 12 2.13333 12H1.06668C0.477577 12 0 11.4851 0 10.85V8.55C0 7.91487 0.477577 7.4 1.06668 7.4ZM6.36667 5H7.43332C8.02242 5 8.5 5.52233 8.5 6.16667V10.8333C8.5 11.4777 8.02242 12 7.43332 12H6.36667C5.77757 12 5.29999 11.4777 5.29999 10.8333V6.16667C5.29999 5.52233 5.77757 5 6.36667 5ZM11.7667 2.4H12.8333C13.4224 2.4 13.9 2.91577 13.9 3.552V10.848C13.9 11.4842 13.4224 12 12.8333 12H11.7667C11.1776 12 10.7 11.4842 10.7 10.848V3.552C10.7 2.91577 11.1776 2.4 11.7667 2.4ZM18.1333 0C18.7224 0 19.2 0.50368 19.2 1.125V10.875C19.2 11.4963 18.7224 12 18.1333 12H17.0667C16.4776 12 16 11.4963 16 10.875V1.125C16 0.50368 16.4776 0 17.0667 0H18.1333Z" fill="white"/>
</svg>
