<svg width="28" height="28" viewBox="0 0 28 28" fill="none" xmlns="http://www.w3.org/2000/svg">
<path d="M13.9998 2.2C20.5167 2.2 25.7995 7.48293 25.7996 13.9998C25.7996 20.5168 20.5168 25.7996 13.9998 25.7996C7.48295 25.7995 2.20001 20.5167 2.20001 13.9998C2.20012 7.483 7.48301 2.2001 13.9998 2.2ZM13.9998 3.79961C8.36667 3.79971 3.79973 8.36665 3.79962 13.9998C3.79962 19.633 8.3666 24.1999 13.9998 24.2C19.6331 24.2 24.2 19.6331 24.2 13.9998C24.1999 8.36659 19.6331 3.79961 13.9998 3.79961ZM8.99982 12.7498C9.69011 12.7498 10.2497 13.3095 10.2498 13.9998C10.2498 14.6902 9.69017 15.2498 8.99982 15.2498C8.30957 15.2497 7.74982 14.6901 7.74982 13.9998C7.74992 13.3096 8.30964 12.7499 8.99982 12.7498ZM13.9998 12.7498C14.6901 12.7498 15.2497 13.3095 15.2498 13.9998C15.2498 14.6902 14.6902 15.2498 13.9998 15.2498C13.3096 15.2497 12.7498 14.6901 12.7498 13.9998C12.7499 13.3096 13.3096 12.7499 13.9998 12.7498ZM18.9998 12.7498C19.6901 12.7498 20.2497 13.3095 20.2498 13.9998C20.2498 14.6902 19.6902 15.2498 18.9998 15.2498C18.3096 15.2497 17.7498 14.6901 17.7498 13.9998C17.7499 13.3096 18.3096 12.7499 18.9998 12.7498Z" fill="white"/>
</svg>
