<svg width="18" height="13" viewBox="0 0 18 13" fill="none" xmlns="http://www.w3.org/2000/svg">
<path d="M9.00049 2.54182C11.6121 2.54193 14.1239 3.49225 16.0167 5.19637C16.1592 5.32794 16.387 5.32628 16.5274 5.19265L17.8899 3.89049C17.9609 3.82271 18.0006 3.73091 18 3.63539C17.9994 3.53987 17.9586 3.44851 17.8867 3.38153C12.9188 -1.12718 5.08139 -1.12718 0.113482 3.38153C0.0415182 3.44846 0.000679012 3.53979 8.01488e-06 3.63531C-0.000647231 3.73083 0.0388978 3.82266 0.109925 3.89049L1.4728 5.19265C1.61308 5.32648 1.84106 5.32814 1.98351 5.19637C3.87652 3.49214 6.38858 2.54181 9.00049 2.54182ZM8.99863 6.89135C10.4239 6.89126 11.7983 7.41867 12.8548 8.3711C12.9977 8.50628 13.2228 8.50335 13.3621 8.3645L14.7139 7.00479C14.785 6.93347 14.8246 6.83671 14.8235 6.73617C14.8225 6.63563 14.781 6.5397 14.7084 6.46984C11.4912 3.49045 6.50883 3.49045 3.29158 6.46984C3.21891 6.5397 3.17744 6.63568 3.17647 6.73625C3.17554 6.83682 3.21518 6.93357 3.28652 7.00479L4.63785 8.3645C4.77715 8.50335 5.00224 8.50628 5.14514 8.3711C6.20094 7.4193 7.57429 6.89193 8.99863 6.89135ZM11.5394 10.0598C11.6101 9.98371 11.649 9.87903 11.647 9.77046C11.645 9.66188 11.6022 9.55903 11.5287 9.48619C10.069 8.13206 7.93118 8.13206 6.47147 9.48619C6.39798 9.55897 6.35513 9.66179 6.35303 9.77036C6.35094 9.87894 6.38977 9.98366 6.46039 10.0598L8.74643 12.5897C8.81343 12.664 8.90479 12.7059 9.0001 12.7059C9.09542 12.7059 9.18678 12.664 9.25378 12.5897L11.5394 10.0598Z" fill="white"/>
</svg>
